<svg xmlns="http://www.w3.org/2000/svg" width="319.824" height="320" viewBox="0 0 319.824 320">
  <g id="Mantenance_Mode" transform="translate(2147.912 8504.962)">
    <rect id="BG" width="319.824" height="320" rx="60" transform="translate(-2147.912 -8504.962)" fill="#fff" opacity="0.16"/>
    <g id="Image" transform="translate(-2113.098 -8449.594)">
      <path id="Path_100" data-name="Path 100" d="M750.344,70.822a4.261,4.261,0,0,1,1.633.019,2.821,2.821,0,0,1,1.734,1.409,3.24,3.24,0,0,1,.2,2.37,3.407,3.407,0,0,1-2.1,1.945,4.586,4.586,0,0,1-1.469-.034,3.049,3.049,0,0,1-2.077-3.76,3.6,3.6,0,0,1,2.073-1.949" transform="translate(-546.23 -51.646)" fill="#0f1f40"/>
      <path id="Path_101" data-name="Path 101" d="M753.222,74.406a3.706,3.706,0,0,1,1.059.072,2.026,2.026,0,0,1,1.234,1.069,2.065,2.065,0,0,1,.029,1.507c-.269.7-.751.923-1.4,1.238l-.863-.067a1.813,1.813,0,0,1-1.26-.854,1.891,1.891,0,0,1-.254-1.511c.2-.756.814-1.1,1.454-1.453" transform="translate(-548.832 -54.309)" fill="#fff"/>
      <path id="Path_102" data-name="Path 102" d="M789.093,647.461a4.312,4.312,0,0,1,1.58.171,3.129,3.129,0,0,1,1.692,1.517,3.171,3.171,0,0,1-2.214,4.312,4.031,4.031,0,0,1-1.776-.187,3.767,3.767,0,0,1-1.661-1.727,3.155,3.155,0,0,1,.185-2.307,3.36,3.36,0,0,1,2.194-1.779" transform="translate(-574.269 -471.874)" fill="#0f1f40"/>
      <path id="Path_103" data-name="Path 103" d="M791.85,651.365a5.008,5.008,0,0,1,.976.009,1.852,1.852,0,0,1,1.262.862,2,2,0,0,1,.235,1.523,2.456,2.456,0,0,1-1.4,1.573,3.424,3.424,0,0,1-.833-.062,1.95,1.95,0,0,1-1.435-.882,2.01,2.01,0,0,1-.141-1.722,2.377,2.377,0,0,1,1.334-1.3" transform="translate(-577.055 -474.715)" fill="#fff"/>
      <path id="Path_104" data-name="Path 104" d="M703.435,649.459a3.92,3.92,0,0,1,1.769.318,2.815,2.815,0,0,1,1.53,1.645,3.157,3.157,0,0,1-.213,2.495,3.37,3.37,0,0,1-2.159,1.629,4.44,4.44,0,0,1-1.768-.286,3.128,3.128,0,0,1-1.6-1.759,2.923,2.923,0,0,1,.151-2.323,3.515,3.515,0,0,1,2.29-1.718" transform="translate(-511.626 -473.335)" fill="#0f1f40"/>
      <path id="Path_105" data-name="Path 105" d="M706.442,652.951a4.132,4.132,0,0,1,1.111.171,1.986,1.986,0,0,1,.977,1,1.918,1.918,0,0,1,.05,1.577,2.566,2.566,0,0,1-1.61,1.378,4.478,4.478,0,0,1-.936-.1,1.98,1.98,0,0,1-1.171-1.023,2.122,2.122,0,0,1-.085-1.659,2.523,2.523,0,0,1,1.664-1.346" transform="translate(-514.417 -475.887)" fill="#fff"/>
      <path id="Path_106" data-name="Path 106" d="M90.584,350.964a4.462,4.462,0,0,1,1.847.32,2.982,2.982,0,0,1,1.5,1.884,2.929,2.929,0,0,1-.246,2.294,3.332,3.332,0,0,1-2.173,1.568,3.575,3.575,0,0,1-1.8-.265,3,3,0,0,1-1.5-1.741,2.914,2.914,0,0,1,.208-2.562,3.088,3.088,0,0,1,2.171-1.5" transform="translate(-64.214 -255.843)" fill="#0f1f40"/>
      <path id="Path_107" data-name="Path 107" d="M93.164,354.394a4.255,4.255,0,0,1,.928.069,2.169,2.169,0,0,1,1.425,1.064,2.258,2.258,0,0,1,.117,1.723,2.515,2.515,0,0,1-1.406,1.265,2.973,2.973,0,0,1-.935.01,1.985,1.985,0,0,1-1.379-1.02,2.27,2.27,0,0,1-.174-1.74,2.388,2.388,0,0,1,1.424-1.372" transform="translate(-66.869 -258.347)" fill="#fff"/>
      <path id="Path_108" data-name="Path 108" d="M61.679,225.914a3.845,3.845,0,0,1,1.73.207,3.393,3.393,0,0,1,1.662,1.816,3.107,3.107,0,0,1-.116,2.39,3.271,3.271,0,0,1-2.126,1.654,3.939,3.939,0,0,1-1.773-.178,3.1,3.1,0,0,1-1.687-1.761,3.168,3.168,0,0,1,.115-2.5,3.3,3.3,0,0,1,2.195-1.632" transform="translate(-43.171 -164.678)" fill="#0f1f40"/>
      <path id="Path_109" data-name="Path 109" d="M64.568,229.416l.835.115a2.211,2.211,0,0,1,1.356,1.2,2.016,2.016,0,0,1,.034,1.6c-.287.772-.89,1.02-1.6,1.339a2.939,2.939,0,0,1-.765-.084,2.294,2.294,0,0,1-1.461-1.167,2.126,2.126,0,0,1-.057-1.677,2.463,2.463,0,0,1,1.659-1.331" transform="translate(-45.797 -167.24)" fill="#fff"/>
      <path id="Path_110" data-name="Path 110" d="M217.951,393.315a6.067,6.067,0,0,1,1.664-.02,3.191,3.191,0,0,1,2.012,1.561,3.359,3.359,0,0,1,.289,2.6,3.668,3.668,0,0,1-2.24,2.089,3.314,3.314,0,0,1-2.042-.089,3.2,3.2,0,0,1-1.763-1.731,3.236,3.236,0,0,1-.053-2.583,3.535,3.535,0,0,1,2.133-1.832" transform="translate(-157.377 -286.664)" fill="#0f1f40"/>
      <path id="Path_111" data-name="Path 111" d="M221.217,396.462a3.525,3.525,0,0,1,1.023.214,2.32,2.32,0,0,1,1.18,1.188,2.58,2.58,0,0,1,.028,1.889,3.2,3.2,0,0,1-1.915,1.392,2.915,2.915,0,0,1-1.08-.26,2.576,2.576,0,0,1-1.292-1.5,2.186,2.186,0,0,1,.169-1.647,2.869,2.869,0,0,1,1.887-1.276" transform="translate(-159.931 -289.013)" fill="#fff"/>
      <path id="Path_112" data-name="Path 112" d="M8.216,269.138a1.3,1.3,0,0,1,.566.678,64.7,64.7,0,0,0-7.763,29.44,71.111,71.111,0,0,0,.576,10.16c.159,1.189.386,2.364.591,3.545a5.509,5.509,0,0,1,.172,1.075,2.137,2.137,0,0,1-.28.466,5.754,5.754,0,0,1-.586-.343L.238,306.105a65.743,65.743,0,0,1,5.047-31.182c.785-1.865,1.625-4.228,2.93-5.785" transform="translate(0 -196.131)" fill="#0f1f40"/>
      <path id="Path_113" data-name="Path 113" d="M286.843,18.956a4.91,4.91,0,0,1,2.36.325,3.822,3.822,0,0,1,1.742,5.39,4.207,4.207,0,0,1-2.523,1.942,4.288,4.288,0,0,1-2.527-.29,4.185,4.185,0,0,1-2.116-2.467,3.916,3.916,0,0,1,.355-3.01,4.125,4.125,0,0,1,2.709-1.889" transform="translate(-207.057 -13.824)" fill="#0f1f40"/>
      <path id="Path_114" data-name="Path 114" d="M289.847,22.4a3.374,3.374,0,0,1,1.637.219,3.278,3.278,0,0,1,1.61,1.8,2.853,2.853,0,0,1-.235,2.207,3.232,3.232,0,0,1-2.154,1.537,4.016,4.016,0,0,1-1.457-.2,3.073,3.073,0,0,1-1.628-1.493,3.024,3.024,0,0,1-.009-2.31,3.555,3.555,0,0,1,2.235-1.76" transform="translate(-209.803 -16.344)" fill="#fff"/>
      <path id="Path_115" data-name="Path 115" d="M691.316,666.719l.454.343.024.38a17.147,17.147,0,0,1-3.107,3.049,59.223,59.223,0,0,1-21.149,12.06,63.232,63.232,0,0,1-39.567-.56,75.386,75.386,0,0,1-10.132-4.434l-.3-.325c-.009-.4-.024-.389.24-.693.915.062,2.3,1.081,3.173,1.523a57.43,57.43,0,0,0,6.337,2.666,63.04,63.04,0,0,0,17.2,3.666,59.752,59.752,0,0,0,39.981-11.647c2.484-1.859,4.525-4.011,6.844-6.029" transform="translate(-450.929 -485.937)" fill="#0f1f40"/>
      <path id="Path_116" data-name="Path 116" d="M580.751.026a11.156,11.156,0,0,1,7.482,2.3,11.019,11.019,0,0,1,4.26,7.43,10.836,10.836,0,0,1-2.346,8.308,11.461,11.461,0,0,1-15.519,2,11.533,11.533,0,0,1-4.443-8.033,10.833,10.833,0,0,1,2.388-7.883A11.442,11.442,0,0,1,580.751.026" transform="translate(-416.223 0)" fill="#0f1f40"/>
      <path id="Path_117" data-name="Path 117" d="M583.515,3.414a7.1,7.1,0,0,1,2.547.137A11.548,11.548,0,0,1,590.5,5.534a10.363,10.363,0,0,1,3.943,6.659,9.963,9.963,0,0,1-2,7.538,10.279,10.279,0,0,1-7.089,3.907,10.445,10.445,0,0,1-7.285-1.937,10.2,10.2,0,0,1-3.845-6.395,10.294,10.294,0,0,1,1.726-7.836,10.789,10.789,0,0,1,7.561-4.055" transform="translate(-419.118 -2.449)" fill="#fff"/>
      <path id="Path_118" data-name="Path 118" d="M469.7,720.441c2.322-.066,4.67.052,7,.058,3.211.007,6.422,0,9.633,0,.959,0,3.034-.235,3.841.218l15.165,7.5c1.7.834,2.864,1.679,3.461,3.555.241.756.56,2.459.181,3.187l-.755.074c-7.05.1-14.11.007-21.161.042q-4.414.022-8.829.037c-1.592,0-3.224.071-4.812-.036a4.855,4.855,0,0,1-2.089-.553,5.119,5.119,0,0,1-2.367-2.9l-.041-.174a15.085,15.085,0,0,1,.133-5.57q.336-2.718.644-5.442" transform="translate(-342.195 -525.136)" fill="#0f1f40"/>
      <path id="Path_119" data-name="Path 119" d="M476.4,723.591a7.191,7.191,0,0,1,2.585.243,60.549,60.549,0,0,1,6.665,2.859c.233.483.082.649-.067,1.151a2.933,2.933,0,0,1-.961-.193c-2.268-.876-4.5-2-6.736-2.97-.5-.215-1.263-.307-1.638-.675Z" transform="translate(-347.68 -527.445)" fill="#fff"/>
      <path id="Path_120" data-name="Path 120" d="M319.463,720.6l3.291-.023c.075,1.6.21,3.2.377,4.8.225,2.149.825,4.824-.122,6.857a4.7,4.7,0,0,1-2.55,2.6l-.162.058a11.475,11.475,0,0,1-3.6.264c-2.065.025-4.131.037-6.2.047-8.1.037-16.2.013-24.3.008-.782,0-3.055.16-3.651-.249a3.971,3.971,0,0,1-.129-.862,5.117,5.117,0,0,1,1.512-4.088,10.888,10.888,0,0,1,3.389-2.091c1.327-.62,2.663-1.221,3.981-1.859,2.5-1.211,4.979-2.505,7.458-3.765a25.317,25.317,0,0,1,2.772-1.427,7.491,7.491,0,0,1,2.493-.207q2.008-.006,4.016-.008c3.806,0,7.611-.011,11.417-.054" transform="translate(-206.196 -525.247)" fill="#0f1f40"/>
      <path id="Path_121" data-name="Path 121" d="M397.83,723.774a25.041,25.041,0,0,1,3.3,0L392.9,727.1a7.6,7.6,0,0,1-1.269.5c-.441.1-.461.074-.826-.155a.794.794,0,0,1-.086-.7,8.018,8.018,0,0,1,2.538-1.193c1.521-.6,3.02-1.262,4.577-1.767" transform="translate(-285.206 -527.541)" fill="#fff"/>
      <path id="Path_122" data-name="Path 122" d="M49.207,439.887a4.36,4.36,0,0,1,3.024.521,3.548,3.548,0,0,1,1.624,2.045l.041.2.87,5.756A38.435,38.435,0,0,1,65.3,451.9c.642-.709,1.29-1.413,1.916-2.136.959-1.108,1.7-2.312,3.249-2.605a5.059,5.059,0,0,1,3.991,1.106,41.583,41.583,0,0,1,4.494,3.775,9.452,9.452,0,0,1,1.61,1.666,4.218,4.218,0,0,1,.54,1.528,3.162,3.162,0,0,1-.054,1.457,7.646,7.646,0,0,1-1.21,1.97c-.724.977-1.463,1.942-2.193,2.914a31.979,31.979,0,0,1,5.316,10.571c2-.28,4.384-1,6.127.359a4.13,4.13,0,0,1,1.595,3.18c.195,1.931.332,3.875.454,5.811a15.069,15.069,0,0,1,.059,3.291,3.643,3.643,0,0,1-.881,1.835c-1.47,1.685-4.457,1.4-6.507,1.483a35.694,35.694,0,0,1-2.959,8.836c1.579,1.366,3.788,2.849,4.18,5a4.257,4.257,0,0,1-1.037,3.5c-.75,1.021-1.582,1.984-2.378,2.971-1.269,1.574-2.811,4.033-5,4.282-2.441.278-4.621-2.078-6.416-3.472a35.635,35.635,0,0,1-8.54,4.867c.335,2.1,1.38,5.568.028,7.372a3.735,3.735,0,0,1-1.413,1.142,14.081,14.081,0,0,1-3.794.853c-1.676.251-3.349.515-5.024.772a4.316,4.316,0,0,1-2.965-.731c-2.022-1.465-2.057-4.57-2.394-6.854a32.292,32.292,0,0,1-9.828-2.867c-1.444,1.469-2.865,3.767-5.013,4.145a4.152,4.152,0,0,1-3.153-.7c-1.035-.763-2-1.725-2.97-2.572a21.628,21.628,0,0,1-3.691-3.5,4.935,4.935,0,0,1-.842-2.179c-.225-2.271,2.067-4.424,3.4-6.1-2.057-2.694-4.471-5.839-5.2-9.2-2.172.192-5.325,1.052-7.223-.241A3.85,3.85,0,0,1,9.9,490.76c-.2-1.258-.3-2.55-.461-3.815-.264-2.119-.946-4.507.521-6.343,1.435-1.8,4.857-1.618,7-1.886.193-1.293.33-2.6.627-3.875a58.649,58.649,0,0,1,2.373-7.242,24.791,24.791,0,0,0-2.193-1.776,6.339,6.339,0,0,1-1.854-1.672,3.923,3.923,0,0,1-.373-2.7l.046-.146a10.974,10.974,0,0,1,1.548-2.876,49.1,49.1,0,0,1,3.428-4.522A3.741,3.741,0,0,1,23.24,452.5c2.112-.13,4.123,2.233,5.592,3.5a31.239,31.239,0,0,1,9.594-5.731l-.138-.768c-.362-2.1-1.2-5.191.152-7a3.633,3.633,0,0,1,1.513-1.2,15.87,15.87,0,0,1,3.585-.618q2.839-.372,5.67-.793" transform="translate(-6.599 -320.309)" fill="#0f1f40"/>
      <path id="Path_123" data-name="Path 123" d="M281.241,562.187a4.853,4.853,0,0,1,.81-.214,12.974,12.974,0,0,1,3.858-.484,3.093,3.093,0,0,1,1.025.546,21.4,21.4,0,0,1-5.414.455Z" transform="translate(-205.316 -409.292)" fill="#fff"/>
      <path id="Path_124" data-name="Path 124" d="M187.425,475.471c.852-1,1.721-1.985,2.594-2.965.771-.866,1.538-2.03,2.789-2.139,2.265-.2,4.2,1.864,5.784,3.268a16.15,16.15,0,0,1,3.1,3.212,3.583,3.583,0,0,1-1.64-1.066c-1.361-1.2-3.791-4.052-5.673-3.906-2,.156-4.346,3.238-5.639,4.679a5.359,5.359,0,0,0-1.341-.944,16.442,16.442,0,0,1-2.932-1.127,32.715,32.715,0,0,0-4.706-1.342c-1.072-.223-2.81-.281-3.61-.945l.236-.436a24.977,24.977,0,0,1,8.628,2.458,12.865,12.865,0,0,1,2.411,1.252" transform="translate(-128.601 -342.875)" fill="#fff"/>
      <path id="Path_125" data-name="Path 125" d="M37.432,501.4a2.692,2.692,0,0,1-1.172-1.859c-.208-1.944,2.309-4.931,3.5-6.427.8-1,1.905-2.675,3.3-2.786a3.622,3.622,0,0,1,2.646,1.177,9.082,9.082,0,0,1-2.06.544,25.308,25.308,0,0,0-4.455,5.954c-.389.715-.734,1.446-1.069,2.187a2.988,2.988,0,0,1-.694,1.21" transform="translate(-26.448 -357.42)" fill="#fff"/>
      <path id="Path_126" data-name="Path 126" d="M119.187,451.781l-.037-.159c-.3-1.415-1.055-4.607-.227-5.836a2.812,2.812,0,0,1,1.848-1.243c1.635-.32,3.333-.456,4.984-.7a22.255,22.255,0,0,1,4.626-.578,2.889,2.889,0,0,1,2.5,2.287l-.217.079-1.185-.724a36.31,36.31,0,0,0-5.467.589,24.823,24.823,0,0,0-3.787.594,2.028,2.028,0,0,0-.793.48A7.056,7.056,0,0,0,119.66,450a8.35,8.35,0,0,1-.473,1.784" transform="translate(-86.5 -323.11)" fill="#fff"/>
      <path id="Path_127" data-name="Path 127" d="M23.64,544.795a2.2,2.2,0,0,1,.943.568,19.177,19.177,0,0,1-1.106,2.627c-1.131,2.986-2.239,6.6-2.123,9.8-1.951.428-5.424.627-6.6,2.351a4.541,4.541,0,0,0-.468,3.051c.149,2.062.62,4.125.688,6.185l-.541-.384a2.329,2.329,0,0,1-.709-.952,9.557,9.557,0,0,1-.406-2.316c-.178-1.438-.361-2.876-.537-4.315-.158-1.295-.33-2.451.571-3.525,1.292-1.544,5.242-1.442,7.2-1.617a28.159,28.159,0,0,1,3.089-11.472" transform="translate(-9.235 -397.088)" fill="#fff"/>
      <path id="Path_128" data-name="Path 128" d="M46.182,456.261a8.351,8.351,0,0,0,.473-1.784,7.056,7.056,0,0,1,1.768-3.427,2.029,2.029,0,0,1,.793-.48A24.83,24.83,0,0,1,53,449.976a36.317,36.317,0,0,1,5.467-.589l1.185.724.217-.079c.218,1.5.44,2.994.683,4.488a7.317,7.317,0,0,0,.559,2.37c.8.664,2.538.723,3.61.945a32.723,32.723,0,0,1,4.706,1.342,16.463,16.463,0,0,0,2.932,1.127,5.359,5.359,0,0,1,1.341.944c1.294-1.441,3.636-4.522,5.639-4.679,1.882-.146,4.312,2.71,5.673,3.906a3.583,3.583,0,0,0,1.639,1.066,2.213,2.213,0,0,1,.388,1.575,4.922,4.922,0,0,1-.984,1.725c-.913,1.277-1.848,2.539-2.826,3.768a26.162,26.162,0,0,1,3.644,5.54c.458.928.875,1.882,1.249,2.847.32.828.7,2.959,1.4,3.393l.279.3a21.4,21.4,0,0,0,5.414-.455,2.48,2.48,0,0,1,1.265,1.917,48.931,48.931,0,0,1,.465,5.267,21.992,21.992,0,0,1,.207,3.957,2.646,2.646,0,0,1-.39,1.165,3.065,3.065,0,0,1-2.2,1.346l-4.817.248a22.856,22.856,0,0,1-3.482,10.112c1.6,1.152,4.461,2.977,4.739,5.023.237,1.743-1.889,3.7-2.908,4.937-.806.981-1.58,1.989-2.4,2.957a3.831,3.831,0,0,1-2.6,1.6c-1.328.1-2.2-.883-3.155-1.656-.935-.759-1.87-1.536-2.845-2.243a39.671,39.671,0,0,1-3.565,2.637,42.263,42.263,0,0,1-6.113,2.916l.933,6.037a3.213,3.213,0,0,1-1.647,2.232,14.718,14.718,0,0,1-3.917.864c-1.72.279-4.512,1.082-6.169.453a3.28,3.28,0,0,1-1.761-1.58,8.9,8.9,0,0,1-.429-2c-.208-1.272-.407-2.533-.563-3.812a23.492,23.492,0,0,1-7.825-1.668c-1.055-.425-2.08-.985-3.152-1.357q-1.059,1.123-2.117,2.245c-.9.958-1.658,2.112-3.106,2.125a3.44,3.44,0,0,1-1.723-.356,19.245,19.245,0,0,1-3.163-2.6c-1.083-.955-2.281-1.877-3.281-2.917a2.1,2.1,0,0,1-.52-.707,3.932,3.932,0,0,1-.483-2.412l.035-.15a5.61,5.61,0,0,1,1.381-2.1c.75-.9,1.478-1.806,2.195-2.731a6.949,6.949,0,0,0-1.043-1.481c-.627-.837-1.238-1.684-1.8-2.567a35.324,35.324,0,0,1-3.029-6.417c-1.978.238-5.184,1.129-7.007.22-.067-2.059-.539-4.122-.688-6.185a4.541,4.541,0,0,1,.468-3.051c1.175-1.723,4.647-1.923,6.6-2.351-.116-3.2.992-6.814,2.123-9.8a19.173,19.173,0,0,0,1.106-2.627,2.2,2.2,0,0,0-.943-.568c.157-.342.29-.468.208-.85l-3.63-2.779a2.988,2.988,0,0,0,.694-1.21c.335-.741.68-1.472,1.069-2.187a25.3,25.3,0,0,1,4.455-5.954,9.085,9.085,0,0,0,2.06-.544,14.792,14.792,0,0,0,3.179,2.635,17.129,17.129,0,0,1,2.5-2.113,21.739,21.739,0,0,1,7.849-3.991,9.327,9.327,0,0,0-.1-1.9" transform="translate(-13.495 -327.293)" fill="#ee2934"/>
      <path id="Path_129" data-name="Path 129" d="M58.988,673.759l1.166,1.656a37.922,37.922,0,0,1-2.906,4.007,17.652,17.652,0,0,1-1.388,1.729,3.932,3.932,0,0,1-.483-2.412l.035-.15a5.611,5.611,0,0,1,1.381-2.1c.75-.9,1.478-1.806,2.195-2.731" transform="translate(-40.371 -491.076)" fill="#fff"/>
      <path id="Path_130" data-name="Path 130" d="M93.352,481.867l.158.886c-.2.243-.077.163-.334.244-3.317,1.039-6.735,3.586-9.216,5.972a8.439,8.439,0,0,0-.955-1,17.13,17.13,0,0,1,2.5-2.113,21.739,21.739,0,0,1,7.849-3.991" transform="translate(-60.567 -351.266)" fill="#fff"/>
      <path id="Path_131" data-name="Path 131" d="M105.748,521.377a19.946,19.946,0,0,1,14.569,4.424,20.3,20.3,0,0,1,7.294,13.461A21.441,21.441,0,0,1,123,555.031a20.408,20.408,0,0,1-13.826,7.423,19.867,19.867,0,0,1-14.184-4.047,20.562,20.562,0,0,1-7.62-13.569,21.155,21.155,0,0,1,4.173-15.583,20.52,20.52,0,0,1,14.209-7.878" transform="translate(-63.621 -379.787)" fill="#0f1f40"/>
      <path id="Path_132" data-name="Path 132" d="M108.917,525.018a18.958,18.958,0,0,1,13,4,19.462,19.462,0,0,1,7.226,13.113,20.285,20.285,0,0,1-4.273,14.784,19.322,19.322,0,0,1-13.306,7.195,19.013,19.013,0,0,1-20.784-17.478,20.608,20.608,0,0,1,4.683-14.809,19.484,19.484,0,0,1,13.457-6.807" transform="translate(-66.173 -382.479)" fill="#fff"/>
      <path id="Path_133" data-name="Path 133" d="M200.874.411A12.088,12.088,0,0,1,202.85.352a15.5,15.5,0,0,1,7.779,1.837,8.212,8.212,0,0,1,3.318,3.225,14.724,14.724,0,0,1,.785,2.521l1.563.61a9.752,9.752,0,0,1,5.111,5.385,11.516,11.516,0,0,1,.6,2.689c.262,2.559.121,5.241.16,7.818a35.242,35.242,0,0,1,.057,5,7.671,7.671,0,0,1-.749,2.307,8.776,8.776,0,0,1-5.5,4.269l-.025,4.137c25.566-.069,51.136.009,76.7.023l24.634.014q3.81,0,7.618,0c1.377,0,2.82-.081,4.189.038a6.752,6.752,0,0,1,3.946,1.723,7.9,7.9,0,0,1,2.564,5.377c.139,7.064,0,14.163,0,21.231q.019,24.239-.023,48.477c0,8.267.028,16.533.027,24.8q0,3.709-.009,7.419a40.973,40.973,0,0,1-.062,4.109,7.383,7.383,0,0,1-2.064,4.4,6.642,6.642,0,0,1-3.817,1.965,23.918,23.918,0,0,1-3.186.07l-5.821,0q-9.614-.008-19.228-.012-32.937.014-65.874.031l-2.892,32.364c-4.732.259-9.562.088-14.306.091H214.2a8.45,8.45,0,0,1-2.229-.116,2.034,2.034,0,0,1-.242-.338,7.442,7.442,0,0,1-.09-1.618c-.1-1.833-.209-3.665-.308-5.5-.448-8.261-1.033-16.534-1.356-24.8l-4.471,0-1.48,32.394-22.177-.055c-2.892-18.39-4.3-37.329-2.566-55.9l3.468-26.685c-3.268-5.8-3.846-12.26-4.021-18.8l-3.878,2.4c-.1,7.351-.043,14.706-.037,22.057q0,3.218,0,6.435c0,1.189.082,2.434-.037,3.616a.728.728,0,0,1-.18.442.625.625,0,0,1-.647-.105,20.616,20.616,0,0,1-.1-3.488q-.005-3.11-.006-6.22,0-11.116-.028-22.232a22.913,22.913,0,0,1-7.214,2.21c-7.052.751-13.545-3.867-18.749-8.085a73.244,73.244,0,0,1-7.072-6.512c-1.756-1.856-3.7-3.616-3.958-6.317-.269-2.791,1.256-5.005,2.941-7.047a12.091,12.091,0,0,1-1.743-1.885c-1.555-2.342-2.058-5.307-2.4-8.046l-2.088-.652c-.171,5.332-.16,10.674-.242,16.009-.022,1.445-.046,2.89-.082,4.335a12.737,12.737,0,0,1-.117,2.207,3.967,3.967,0,0,1-.919,1.769,3.414,3.414,0,0,1-2.533,1.245,3.875,3.875,0,0,1-3.907-3.034A19.968,19.968,0,0,1,125.8,75.8c.095-2.774.185-5.545.234-8.321l-1.476-.174c-1.5-.277-3.211-1.929-4-3.181a4.27,4.27,0,0,1-.58-3.383,2.8,2.8,0,0,1,1.361-1.638l.139-.082-.084-.313a4.29,4.29,0,0,1-.21-1.882,3.586,3.586,0,0,1,1.889-2.472,4.048,4.048,0,0,1,.885-2.225,4.371,4.371,0,0,1,3.29-1.374l-.026-3.666-.182-.034c-3.017-.61-5.909-3.138-7.525-5.675a12.814,12.814,0,0,1-1.836-9.58,14.353,14.353,0,0,1,4.023-7.284c.618-.619,1.685-1.744,2.611-1.741.661.7,1.413,5.131,1.673,6.334a7.581,7.581,0,0,0-1.156,4.137,6.479,6.479,0,0,0,2.3,4.568,6.321,6.321,0,0,0,4.981,1.257,6.7,6.7,0,0,0,4.426-2.968,5.779,5.779,0,0,0,.293-5.987,15.517,15.517,0,0,1-1.2-1.925,17.057,17.057,0,0,1-.48-2.15c-.279-1.254-.653-2.49-.9-3.752-.086-.44-.224-.732.038-1.117a6.869,6.869,0,0,1,2.9.847,12.988,12.988,0,0,1,6.827,7.26,13.386,13.386,0,0,1-6.1,16.421,24.673,24.673,0,0,1-3.264,1.334l-.079,2.6c2.4.449,4.82.835,6.865,2.271,3.327,2.336,5.433,6.89,6.132,10.823a7.153,7.153,0,0,1,3.558.094,7.663,7.663,0,0,1,2.323,1.615c2.825,2.472,5.036,4.6,9.006,4.52,6.071-.117,9.185-5.741,12.674-9.858a46.059,46.059,0,0,1,7.066-6.937,33.208,33.208,0,0,1,5.458-3.293,11.288,11.288,0,0,0,2.759-1.372l.137-.178c.606-.581,2.2-.826,3.021-1.036a28.666,28.666,0,0,1,5.5-1.272l.053-4.261a14.934,14.934,0,0,1-7.706-6.618c-3.048-5.478-2.463-12.232-.82-18.044A8.546,8.546,0,0,1,188,10.664a6.77,6.77,0,0,1,1.609-4.816C192.376,2.359,196.6.887,200.874.411" transform="translate(-85.662 -0.249)" fill="#0f1f40"/>
      <path id="Path_134" data-name="Path 134" d="M798.5,361.843l.529-.072c.417.232.609.834.831,1.258a30.044,30.044,0,0,1-4.405.923l-1.562-.014a3.516,3.516,0,0,1,.171-1.567,22.792,22.792,0,0,0,4.436-.529" transform="translate(-579.575 -263.728)" fill="#ee2934"/>
      <path id="Path_135" data-name="Path 135" d="M505.249,428.539c1.07.237,1.137,1.446,1.836,2.2,1.1,1.176,2.226,1.231,3.724,1.308.427.313.383.353.488.846l-.322.429a4.853,4.853,0,0,1-3.329-.421,5.188,5.188,0,0,1-2.669-2.933,1.479,1.479,0,0,1,.272-1.424" transform="translate(-368.591 -312.396)" fill="#fff"/>
      <path id="Path_136" data-name="Path 136" d="M375.283,429.723a2.475,2.475,0,0,1,.575.166c.212.129.332.234.346.484a3.137,3.137,0,0,1-1.1,1.99,6.358,6.358,0,0,1-4.951,1.91c-.418-.148-.588-.142-.838-.52a1.583,1.583,0,0,1,.224-.794c.175-.237,1.568-.167,1.927-.223,1.924-.3,2.753-1.587,3.818-3.013" transform="translate(-269.613 -313.26)" fill="#fff"/>
      <path id="Path_137" data-name="Path 137" d="M145.072,189.42l.193.061a5.771,5.771,0,0,0,.719,3.255,16.135,16.135,0,0,0,1.414,1.471c-.163.309-.242.53-.563.7l-1.192-.8a11.544,11.544,0,0,0-3.141-1.817l-.169-.057a2.074,2.074,0,0,1,.285-1.269,3.779,3.779,0,0,1,2.455-1.547" transform="translate(-103.846 -138.083)" fill="#fff"/>
      <path id="Path_138" data-name="Path 138" d="M673.247,438.621a3.956,3.956,0,0,1,1.351.686l-8.96,11.333-.252.042c-.37-.01-.545-.257-.78-.5-.041-.421.022-.471.25-.831a44.122,44.122,0,0,1,2.837-3.565c1.884-2.367,3.742-4.748,5.554-7.17" transform="translate(-485.182 -319.73)" fill="#fff"/>
      <path id="Path_139" data-name="Path 139" d="M136.1,203.3a9.1,9.1,0,0,1,4.519,2.574,3.334,3.334,0,0,1,.969,2.3,2.625,2.625,0,0,1-1.242,1.9,14.148,14.148,0,0,1-4.941-3.7,1.794,1.794,0,0,1-.4-1.412,2.37,2.37,0,0,1,1.1-1.663" transform="translate(-98.485 -148.199)" fill="#fff"/>
      <path id="Path_140" data-name="Path 140" d="M131.284,219.588a20.084,20.084,0,0,1,2.913,2.106,12.63,12.63,0,0,1,2.266,1.433,2.126,2.126,0,0,1,.243,1.209,2.484,2.484,0,0,1-1.068,1.885l-.278.017a5.231,5.231,0,0,1-3.76-1.709,4.214,4.214,0,0,1-1.508-2.876,2.826,2.826,0,0,1,1.192-2.065" transform="translate(-94.924 -160.073)" fill="#fff"/>
      <path id="Path_141" data-name="Path 141" d="M438.663,192.244a3.966,3.966,0,0,1,.989.849q1.187,1.136,2.372,2.274l-2.106,3.122-1.135-.011-2.148.029-1.572-3.026Z" transform="translate(-317.613 -140.141)" fill="#ee2934"/>
      <path id="Path_142" data-name="Path 142" d="M717.7,411.808c2.169-.185,5.051,1.155,7.084,1.895.784.285,1.951.56,2.279,1.408a1.616,1.616,0,0,1-.109,1.232,2.547,2.547,0,0,1-1.858.978,36.859,36.859,0,0,1-9.707-2.694,5.941,5.941,0,0,1,2.31-2.818" transform="translate(-522.264 -300.186)" fill="#fff"/>
      <path id="Path_143" data-name="Path 143" d="M731.018,394.341a5.037,5.037,0,0,1,1.5.021,25.589,25.589,0,0,1,3.83,1.454,18.252,18.252,0,0,1,3.178,1.312,2.7,2.7,0,0,1,.909.91,1.4,1.4,0,0,1-.019,1.068,2.692,2.692,0,0,1-1.542,1.482,4.4,4.4,0,0,1-1.206.072,17.641,17.641,0,0,1-2.818-1.048c-1.528-.569-3.206-1-4.669-1.691a1.535,1.535,0,0,1-.578-.5,2.487,2.487,0,0,1-.035-1.621,2.708,2.708,0,0,1,1.447-1.457" transform="translate(-532.532 -287.43)" fill="#fff"/>
      <path id="Path_144" data-name="Path 144" d="M790.475,256.977a16.445,16.445,0,0,1,7.733,1.149,15.658,15.658,0,0,1,4.257,2.716,3.1,3.1,0,0,1,.912,1.078,2.044,2.044,0,0,1-.263.473,2.122,2.122,0,0,1-1.361.543,13.748,13.748,0,0,0-3.238,1.9,37.951,37.951,0,0,0-7.357-2.886Z" transform="translate(-577.118 -187.295)" fill="#ee2934"/>
      <path id="Path_145" data-name="Path 145" d="M445.608,496.816l.812.192a1.6,1.6,0,0,1,.286.37,4.907,4.907,0,0,1,.063.962c.06.9.119,1.8.185,2.706.478,6.556.947,13.125,1.357,19.685h-4.4q.311-9.1.739-18.2c.054-1.154.09-2.31.137-3.464a7.144,7.144,0,0,1,.132-1.628c.128-.426.326-.441.692-.629" transform="translate(-324.068 -362.119)" fill="#fff"/>
      <path id="Path_146" data-name="Path 146" d="M460.041,168.888l6.347,2.173L460,182.1l-.816-.756-7.214-6.719Z" transform="translate(-329.964 -123.109)" fill="#fff"/>
      <path id="Path_147" data-name="Path 147" d="M399.459,169.041c.718.076,6.32,4.841,7.256,5.6l-7.856,6.671-1.074.937-5.328-11.447Z" transform="translate(-286.513 -123.221)" fill="#fff"/>
      <path id="Path_148" data-name="Path 148" d="M437.875,131.926c.258.345.106,8.126.106,9.21l-8.118,5.782-4.194-3.242-2.743-2.319a20.271,20.271,0,0,0,.251-4.417,15.1,15.1,0,0,0,4.252.519c4.355-.116,7.584-2.524,10.447-5.533" transform="translate(-308.758 -96.165)" fill="#fff"/>
      <path id="Path_149" data-name="Path 149" d="M158.735,184.784a16.8,16.8,0,0,1,4.494.283c2.4.324,4.612.594,6.682,1.956,3.325,2.188,5.139,6.622,5.882,10.379l-3.426,2.1-2.738,2.045-.422-.377c-2.484-2.262-3.268-6.019-3.422-9.242a16.292,16.292,0,0,0-3.81-1.176c-1.431-.346-3.564-.949-4.316-2.3a3.42,3.42,0,0,1-.191-2.673,3.318,3.318,0,0,1,1.268-.992" transform="translate(-114.827 -134.641)" fill="#fff"/>
      <path id="Path_150" data-name="Path 150" d="M773.157,279.456a43.97,43.97,0,0,1,6.578,2.566l2.707,8.572a36.709,36.709,0,0,1-2.733,2.46,24.357,24.357,0,0,1-3.131,2.762c-.417.26-.569.123-1.008,0l-6.167-3.107-3.66-8.2c2.792-.752,5.134-3.323,7.414-5.057" transform="translate(-559.072 -203.701)" fill="#ee2934"/>
      <path id="Path_151" data-name="Path 151" d="M680.688,377.415a7.123,7.123,0,0,1-.356-4.308,15.574,15.574,0,0,1,6.728-9.779c1.7-1.113,4.388-2.4,6.468-1.935l.181.045c3.156.76,6.607,3.438,8.765,5.838a3.459,3.459,0,0,1,1.107,2.926,4.6,4.6,0,0,1-.884,1.111c-1.857-.527-3.617-1.465-5.433-2.121a4.227,4.227,0,0,0,.215-1.591c-.369-.24-.371-.2-.812-.135a2.244,2.244,0,0,0-.341.405c-.109.221.053.984-.072,1.143a8.563,8.563,0,0,1-1.264.208,3.372,3.372,0,0,0-2.649,3.424,1.939,1.939,0,0,0,.308.87c.1.181.065.095.1.323l-.166.023a3.365,3.365,0,0,0-2.52,1.356,8.306,8.306,0,0,0-1.607,2.915c1.461,1.838,7.4,2.8,9.716,3.283a4.471,4.471,0,0,1-2.979,2.75,4.328,4.328,0,0,1-1.555.355,9.833,9.833,0,0,1-2.311-.694,34.272,34.272,0,0,1-4.026-1.537c-2.332-1.146-5.072-2.741-6.615-4.875" transform="translate(-496.562 -263.341)" fill="#fff"/>
      <path id="Path_152" data-name="Path 152" d="M138.2,81.618a10.1,10.1,0,0,1,2.219.906,12.1,12.1,0,0,1,5.9,7.278,12.511,12.511,0,0,1-1.056,9.25c-2,3.536-4.94,5.325-8.764,6.387l-.046,3.17c-1.831-.092-3.556-.362-5.283.377l-.139-3.43-2.66-.987c-3.276-1.426-5.3-4.258-6.583-7.485a13.169,13.169,0,0,1-.375-5.264l.162-1.013a12.248,12.248,0,0,1,5.116-7.465L127.8,88.2a7.876,7.876,0,0,0-.846,1.806,7.291,7.291,0,0,0,.681,5.73A7.077,7.077,0,0,0,131.99,99.1a7.763,7.763,0,0,0,5.894-.859,7.536,7.536,0,0,0,3.407-4.958,7.049,7.049,0,0,0-1.389-5.612,6.971,6.971,0,0,1-.94-2.73q-.378-1.663-.763-3.325" transform="translate(-88.508 -59.578)" fill="#fff"/>
      <path id="Path_153" data-name="Path 153" d="M482.308,150.854l74.067-.031a42.665,42.665,0,0,1-.026,4.789l-69.535.023a12.121,12.121,0,0,1-4.537-.971Z" transform="translate(-352.149 -109.947)" fill="#fff"/>
      <path id="Path_154" data-name="Path 154" d="M505.625,172.138l66.133.051a57.272,57.272,0,0,1-.093,6.942l-1.7.072-48.01-.1c-.966-.666-1.863-1.4-2.864-2.023a27.5,27.5,0,0,0-9.977-3.868c-1.186-.188-2.419-.117-3.59-.327a15.687,15.687,0,0,1-2.222-.674Z" transform="translate(-367.494 -125.483)" fill="#e7e7e7"/>
      <path id="Path_155" data-name="Path 155" d="M388.559,60.513c4.833,2.4,10.738,1.513,15.762.184a16.2,16.2,0,0,1,3.057,1.185,4.709,4.709,0,0,1,2.35,2.656l.047.2c.353,1.424-.153,5.175.552,6a5.1,5.1,0,0,0,2.32-.4,4.231,4.231,0,0,1,1.16-1.584,2.619,2.619,0,0,1,2.108-.22,3.327,3.327,0,0,1,2.1,1.706,5.687,5.687,0,0,1-.106,4.213c-.9,2.312-2.8,3.488-4.983,4.425l.655-2.027a2.144,2.144,0,0,0,.155-1.454c-.348-.1-.378-.148-.7,0a13.378,13.378,0,0,1-6.39,7.4,12.188,12.188,0,0,1-9.631.9A13.522,13.522,0,0,1,389.134,77c-2.552-4.847-2.189-11.408-.575-16.488" transform="translate(-282.747 -44.172)" fill="#fff"/>
      <path id="Path_156" data-name="Path 156" d="M443.239,81.1a1.6,1.6,0,0,1,.971.553,1.536,1.536,0,0,1-.261,1.031,1.814,1.814,0,0,1-1.055-.426,1.508,1.508,0,0,1,.346-1.158" transform="translate(-323.322 -59.199)" fill="#0f1f40"/>
      <path id="Path_157" data-name="Path 157" d="M485.205,97.738c.523.053.648,0,1.03.38a1.976,1.976,0,0,1-.487,1.176,1.492,1.492,0,0,1-.864-.458,1.367,1.367,0,0,1,.32-1.1" transform="translate(-353.975 -71.344)" fill="#0f1f40"/>
      <path id="Path_158" data-name="Path 158" d="M403.185,80.956a1.4,1.4,0,0,1,.771.245c.2.156.169.313.213.549-.233.422-.394.47-.8.707l-.426-.146c-.374-.167-.361-.26-.494-.629.161-.519.274-.483.739-.727" transform="translate(-293.798 -59.094)" fill="#0f1f40"/>
      <path id="Path_159" data-name="Path 159" d="M441.838,92.252a1.7,1.7,0,0,1,.746.084,1.381,1.381,0,0,1,.545,1.111,1.8,1.8,0,0,1-.6,1.486,2.036,2.036,0,0,1-.462.029c-.4-.032-.566-.289-.79-.58a2.714,2.714,0,0,1,.558-2.13" transform="translate(-322.129 -67.338)" fill="#0f1f40"/>
      <path id="Path_160" data-name="Path 160" d="M402,92.187l.936.067a1.256,1.256,0,0,1,.6.935,1.628,1.628,0,0,1-.526,1.491,1.321,1.321,0,0,1-.89,0,1.24,1.24,0,0,1-.473-.821A2.037,2.037,0,0,1,402,92.187" transform="translate(-293.19 -67.292)" fill="#0f1f40"/>
      <path id="Path_161" data-name="Path 161" d="M417.03,91.152c.425.034.611-.012.942.269a10.265,10.265,0,0,1,.256,4.207,4.5,4.5,0,0,1-.559.976,3.121,3.121,0,0,0-.687,1.366,1.2,1.2,0,0,0,.629.727,2.489,2.489,0,0,0,1.887-.072,2.323,2.323,0,0,1,.895-.183,1.1,1.1,0,0,1,.368.814,5.187,5.187,0,0,1-1.153.506,3.727,3.727,0,0,1-2.81-.341,1.956,1.956,0,0,1-.849-1.384c-.108-.927.812-1.865,1.329-2.544Z" transform="translate(-303.651 -66.537)" fill="#0f1f40"/>
      <path id="Path_162" data-name="Path 162" d="M758.348,150.845q13.3,0,26.605,0,3.832,0,7.665,0a29.575,29.575,0,0,1,4.312.107,6.158,6.158,0,0,1,3.212,1.683c2.645,2.618,1.975,6.547,1.956,9.945l-.007,1.081q-14.458-.01-28.916-.024l-6.825-.006a12.543,12.543,0,0,0-2.84.064,2.911,2.911,0,0,0-.265.812l-5.6-.056a2.031,2.031,0,0,0,.618-.937,19.355,19.355,0,0,0,.1-4.086q0-4.293-.008-8.586" transform="translate(-553.161 -109.94)" fill="#b2a9a7"/>
      <path id="Path_163" data-name="Path 163" d="M866.477,163.995a4.586,4.586,0,0,1,1.976.3,3.708,3.708,0,0,1,1.838,2.093,3.449,3.449,0,0,1-.17,2.575,3.63,3.63,0,0,1-2.449,1.866,3.835,3.835,0,0,1-2.2-.4,3.7,3.7,0,0,1-1.739-2.312,3.64,3.64,0,0,1,.435-2.684,3.489,3.489,0,0,1,2.312-1.436" transform="translate(-630.506 -119.547)" fill="#0f1f40"/>
      <path id="Path_164" data-name="Path 164" d="M869.181,167.4a4.67,4.67,0,0,1,1.3.077,2.717,2.717,0,0,1,1.482,1.363,2.4,2.4,0,0,1,.1,1.9,2.648,2.648,0,0,1-1.543,1.511,4.108,4.108,0,0,1-1.49-.049,2.37,2.37,0,0,1-1.269-1.143,2.612,2.612,0,0,1-.2-2.151,2.831,2.831,0,0,1,1.61-1.513" transform="translate(-633.264 -122.027)" fill="#fff"/>
      <path id="Path_165" data-name="Path 165" d="M829.033,163.85a4.79,4.79,0,0,1,1.869.1,3.372,3.372,0,0,1,2.047,1.713,3.664,3.664,0,0,1,.195,2.88,3.711,3.711,0,0,1-2.261,2.1,4.482,4.482,0,0,1-2.2-.137,3.224,3.224,0,0,1-1.873-1.725,3.942,3.942,0,0,1-.011-2.91,3.6,3.6,0,0,1,2.238-2.014" transform="translate(-603.42 -119.409)" fill="#0f1f40"/>
      <path id="Path_166" data-name="Path 166" d="M831.912,167.386a3.948,3.948,0,0,1,1.489.154,2.542,2.542,0,0,1,1.345,1.334,2.846,2.846,0,0,1,.019,1.952,2.687,2.687,0,0,1-1.609,1.438,4.763,4.763,0,0,1-1.34-.058,2.435,2.435,0,0,1-1.5-1.3,2.576,2.576,0,0,1-.041-1.9,2.773,2.773,0,0,1,1.637-1.618" transform="translate(-606.04 -122.016)" fill="#fff"/>
      <path id="Path_167" data-name="Path 167" d="M422.2,219.086c.338-.018.33-.075.621.136l5.029,60.045-7.611,7.615-1.4-1.43-6.952-7.178,7.986-59.131Z" transform="translate(-300.7 -159.6)" fill="#ee2934"/>
      <path id="Path_168" data-name="Path 168" d="M616.519,256.246l36.211.015a31.3,31.3,0,0,0,.094,4.852,17.694,17.694,0,0,0-3.146,6.31c-1.272,4.953-.274,9.281,2.3,13.606l-1.025,4.209-2.483-1.174c-2.039-.884-3.786-.354-5.745.41-2.161-1.186-4.179-2.577-6.234-3.932a64.9,64.9,0,0,1-6.869-4.841c-5.751-4.961-10.056-12.579-13.106-19.454" transform="translate(-450.114 -186.765)" fill="#ee2934"/>
      <path id="Path_169" data-name="Path 169" d="M245.818,178.909c.291,0,.254-.06.427.2a15.168,15.168,0,0,1,.938,2.228c.855,1.975,1.769,3.935,2.693,5.879a11.215,11.215,0,0,0,1.989,3.429c.783-.115,1.462-.887,2.059-1.384,1.1-.912,2.175-1.865,3.345-2.684l.168-.117,1.7,2.936-7.669,55.09a14.344,14.344,0,0,1-3.954-.322c-3.3-.777-7.255-2.713-9.079-5.713-2.095-3.443-2.815-7.8-3.2-11.739a86.406,86.406,0,0,1,.984-22.859c.526-3.117,1.335-6.147,2.063-9.217-.219-.311-.232-.279-.61-.36-.9.62-2.032,7.291-2.334,8.764L233.9,219.56c-4.078,3.211-9.923,5.972-15.245,5.325a18.892,18.892,0,0,1-4.832-1.241,34.014,34.014,0,0,1-7.2-4.219,80.2,80.2,0,0,1-9.974-8.705c-1.2-1.223-2.728-2.555-3.371-4.164a6.09,6.09,0,0,1,.291-4.871c1.5-3.264,5.426-6.4,8.78-7.615,3.071-1.115,4.439.205,6.623,2.087a21.44,21.44,0,0,0,4.468,3.158,9.79,9.79,0,0,0,4.354.712c6.1-.288,9.155-5.064,12.631-9.371a54.59,54.59,0,0,1,5.049-5.495,30.486,30.486,0,0,1,10.341-6.251" transform="translate(-140.847 -130.345)" fill="#fff"/>
      <path id="Path_170" data-name="Path 170" d="M470.089,178.714a34.406,34.406,0,0,1,4.431.4c9.955,1.935,17.082,9.023,21.906,17.569,1.214,2.151,2.216,4.431,3.333,6.636a65.282,65.282,0,0,0,8.827,13.563c4.207,4.84,10.172,8.195,15.608,11.491a16.923,16.923,0,0,0-3.5,2.363,16.417,16.417,0,0,0-5.435,11.867,44.928,44.928,0,0,1-8.645-1.749c-7.825-2.475-14.554-8.1-19.323-14.67a70.938,70.938,0,0,1-5.4-9.109,58.379,58.379,0,0,1-3.656-8.889c-.286-.883-.572-1.78-.786-2.684a4.977,4.977,0,0,0-.515-1.816c-.154-.175-.381-.094-.593-.089l-.257.274a13.892,13.892,0,0,0,.9,3.653,68.636,68.636,0,0,0,4.425,10.917c.6,1.166,1.258,2.3,1.911,3.437a4.761,4.761,0,0,1,.792,1.65,17.664,17.664,0,0,1-.08,2.883c-.268,3.762-1.287,7.832-3.751,10.771-5,5.965-12.606,7.15-19.934,7.786l-4.638-55.681a22.352,22.352,0,0,0,2.091-3.122l5.095,4.5a27.433,27.433,0,0,0,3.06-4.8c1.382-2.381,2.774-4.752,4.134-7.146" transform="translate(-332.742 -130.204)" fill="#fff"/>
      <path id="Path_171" data-name="Path 171" d="M601.978,201.3l5.6.056c1.527.156,3.088.09,4.622.093q3.649.007,7.3.01c8.963.009,17.954-.115,26.914.055.229,21.427-.014,42.864.029,64.293q.023,11.336.014,22.672,0,3.377-.006,6.753a43.811,43.811,0,0,1-.1,4.5,5.888,5.888,0,0,1-1.7,3.387,6.193,6.193,0,0,1-3.51,1.745,29.957,29.957,0,0,1-3.268.051q-2.914,0-5.828,0-9.442,0-18.885,0c-21.95,0-43.916-.167-65.864.04a255.01,255.01,0,0,0-1.426-39.326c-.41-3.268-1.028-6.53-1.566-9.781a20.537,20.537,0,0,0,1.936-2.1c2.657-3.614,3.222-8.089,3.469-12.426l5,6.5a61.9,61.9,0,0,0,5.819,5.155,38.343,38.343,0,0,0,14.853,6.543c1.6.345,3.233.487,4.845.772l.576,1.008a7.446,7.446,0,0,0,1.179,1.311c-1.873,2.476-3.823,4.894-5.759,7.322-1.153,1.445-2.852,3.178-3.61,4.858l-.08.187a3.373,3.373,0,0,0-.285,1.452,4.2,4.2,0,0,0,1.338,3.222,4.572,4.572,0,0,0,3.417,1.334,5.354,5.354,0,0,0,2.874-.946,11.062,11.062,0,0,0,1.764-1.9c.937-1.146,1.842-2.316,2.753-3.483,1.877-2.406,3.786-4.863,5.84-7.119,2.373.947,4.147,1.827,6.68.749a5.337,5.337,0,0,0,3.172-3.457l-.011,0,.934-.126a3.166,3.166,0,0,0,2.074-1.594,2.826,2.826,0,0,0,.132-2.248c1.147-.314,2.058-.472,2.781-1.526a2.7,2.7,0,0,0,.455-2.178,2.269,2.269,0,0,0-1.211-1.612,1.419,1.419,0,0,1-.574-.454l-.085-.155.178-.15a3.244,3.244,0,0,0,.743-2.629c-.294-1.806-1.935-3.111-3.236-4.239-1-.867-2-1.727-3.052-2.525a19.5,19.5,0,0,1,.872-3.524l1.814,1.834a15.916,15.916,0,0,0,11.521,3.919,16.179,16.179,0,0,0,9.912-4.205c1.071-1,1.98-2.181,2.957-3.272l-.4-.405c-.344-.07-.453-.15-.746.09a14.985,14.985,0,0,0-1.293,1.665,16.661,16.661,0,0,1-5.386,3.961l-.09-.328a2.376,2.376,0,0,0-.617-1.391,2.148,2.148,0,0,0-.791-.132c-1.012.072-2.034.459-3.051.593-.822.108-1.647,0-2.463.154-.629.543-.66,1.551-.787,2.331a18.364,18.364,0,0,1-5.976-2.135,15.613,15.613,0,0,1-7.021-9.855,15.3,15.3,0,0,1,1.99-11.244,15.841,15.841,0,0,1,10.224-6.978l.834,5.326c-1.766,1.35-3.51,2.811-5.324,4.085-.682.479-1.567.281-2.1.965a1.745,1.745,0,0,0-.152.971,18.345,18.345,0,0,0,1.637,3.282c.759,1.549,1.461,3.128,2.173,4.7-.635.715-1.177,1.517-1.765,2.271a6.079,6.079,0,0,0-.97,1.374c-.08.213,0,.248.1.43l.324.072c1.079-.421,2.233-2.443,2.918-3.389,2.346,1.135,4.6,2.652,7.071,3.5,1.189-.576,6.4-4.84,6.945-5.926a1.891,1.891,0,0,0,.141-1.136,17.266,17.266,0,0,0-.79-2.533c-.588-1.8-1.2-3.584-1.748-5.391a12.944,12.944,0,0,1,3.5-1.834,13.562,13.562,0,0,1,1.384-1.846,15.02,15.02,0,0,1,3.759,9.865c-.01.937-.259,1.844-.248,2.775,0,.2.184.283.321.414l.338-.045c.522-.588.509-2.657.518-3.464a15.425,15.425,0,0,0-4.479-10.636,16.662,16.662,0,0,0-11.774-4.948c-4.865-.008-8.992,2.284-12.367,5.658a31.289,31.289,0,0,1-.094-4.852l-36.211-.015c-.957-1.7-1.8-3.46-2.821-5.128a56.02,56.02,0,0,0-7.627-9.546c11.222-.172,22.465-.023,33.689-.026q4.678,0,9.356-.009a45.008,45.008,0,0,0,5.553-.13" transform="translate(-397.497 -146.559)" fill="#fff"/>
      <path id="Path_172" data-name="Path 172" d="M653.663,345.147a38.176,38.176,0,0,1,.18,5.4q.028,4.323.051,8.647.083,12.017.08,24.033,0,2.9,0,5.8a16.325,16.325,0,0,1-.209,4.008l-.052.211a6.038,6.038,0,0,1-2.7,3.628,6.194,6.194,0,0,1-2.954.881c-4.083.226-8.255.082-12.348.078q-10.618-.011-21.237,0-9.467.007-18.934,0-2.914,0-5.828-.009a13.93,13.93,0,0,1-3.694-.251,5.8,5.8,0,0,1-3.4-2.669,6.3,6.3,0,0,1-.749-2.547c-.109-1.477.01-3.034.028-4.517.034-2.645.038-5.29.041-7.936.012-9.025-.027-18.051.153-27.075a61.879,61.879,0,0,0,5.819,5.155,38.341,38.341,0,0,0,14.853,6.544c1.6.345,3.233.486,4.845.772l.575,1.007a7.45,7.45,0,0,0,1.179,1.311c-1.873,2.476-3.823,4.894-5.758,7.322-1.153,1.446-2.852,3.179-3.61,4.858l-.079.187a3.371,3.371,0,0,0-.285,1.452,4.2,4.2,0,0,0,1.338,3.222,4.575,4.575,0,0,0,3.417,1.333,5.355,5.355,0,0,0,2.874-.945,11.067,11.067,0,0,0,1.764-1.9c.937-1.146,1.842-2.316,2.753-3.483,1.878-2.406,3.786-4.863,5.84-7.119,2.372.947,4.147,1.827,6.68.749a5.337,5.337,0,0,0,3.172-3.457l-.011,0,.934-.127a3.165,3.165,0,0,0,2.074-1.594,2.826,2.826,0,0,0,.132-2.248c1.147-.314,2.058-.472,2.781-1.526a2.694,2.694,0,0,0,.455-2.178,2.268,2.268,0,0,0-1.211-1.612,1.421,1.421,0,0,1-.574-.454l-.085-.155.178-.15a3.245,3.245,0,0,0,.743-2.63c-.294-1.806-1.935-3.11-3.236-4.238-1-.867-2-1.727-3.052-2.526a19.513,19.513,0,0,1,.872-3.524l1.814,1.834a15.916,15.916,0,0,0,11.521,3.918,16.177,16.177,0,0,0,9.912-4.2c1.071-1,1.98-2.181,2.957-3.272" transform="translate(-424.864 -251.503)" fill="#fb4b57"/>
    </g>
  </g>
</svg>
