<svg xmlns="http://www.w3.org/2000/svg" width="319.824" height="320" viewBox="0 0 319.824 320">
  <g id="Mantenance_Mode" transform="translate(2147.912 8504.962)">
    <rect id="BG" width="319.824" height="320" rx="60" transform="translate(-2147.912 -8504.962)" fill="#fff" opacity="0.16"/>
    <g id="Image" transform="translate(-2113.467 -8449.901)">
      <path id="Path_100" data-name="Path 100" d="M750.35,70.822a4.273,4.273,0,0,1,1.637.019,2.83,2.83,0,0,1,1.739,1.413,3.25,3.25,0,0,1,.2,2.377,3.417,3.417,0,0,1-2.1,1.951,4.6,4.6,0,0,1-1.473-.034,3.058,3.058,0,0,1-2.083-3.771,3.611,3.611,0,0,1,2.079-1.955" transform="translate(-546.372 -51.59)" fill="#0f1f40"/>
      <path id="Path_101" data-name="Path 101" d="M753.226,74.406a3.717,3.717,0,0,1,1.062.073,2.032,2.032,0,0,1,1.237,1.072,2.071,2.071,0,0,1,.029,1.511c-.27.7-.754.925-1.4,1.241l-.866-.068a1.818,1.818,0,0,1-1.264-.856,1.9,1.9,0,0,1-.255-1.516c.2-.758.816-1.107,1.458-1.457" transform="translate(-548.97 -54.25)" fill="#fff"/>
      <path id="Path_102" data-name="Path 102" d="M789.1,647.461a4.326,4.326,0,0,1,1.585.171,3.138,3.138,0,0,1,1.7,1.521,3.18,3.18,0,0,1-2.221,4.325,4.043,4.043,0,0,1-1.781-.188,3.778,3.778,0,0,1-1.666-1.732,3.165,3.165,0,0,1,.186-2.314,3.37,3.37,0,0,1,2.2-1.785" transform="translate(-574.38 -471.976)" fill="#0f1f40"/>
      <path id="Path_103" data-name="Path 103" d="M791.854,651.365a5.014,5.014,0,0,1,.979.009,1.857,1.857,0,0,1,1.266.865,2,2,0,0,1,.236,1.528,2.463,2.463,0,0,1-1.4,1.577,3.429,3.429,0,0,1-.835-.062,1.955,1.955,0,0,1-1.439-.884,2.016,2.016,0,0,1-.141-1.727,2.384,2.384,0,0,1,1.338-1.306" transform="translate(-577.163 -474.813)" fill="#fff"/>
      <path id="Path_104" data-name="Path 104" d="M703.443,649.459a3.933,3.933,0,0,1,1.774.319,2.823,2.823,0,0,1,1.534,1.65,3.167,3.167,0,0,1-.214,2.5,3.38,3.38,0,0,1-2.166,1.634,4.452,4.452,0,0,1-1.773-.287,3.138,3.138,0,0,1-1.6-1.765,2.932,2.932,0,0,1,.151-2.33,3.526,3.526,0,0,1,2.3-1.723" transform="translate(-511.639 -473.435)" fill="#0f1f40"/>
      <path id="Path_105" data-name="Path 105" d="M706.447,652.951a4.146,4.146,0,0,1,1.114.172,1.991,1.991,0,0,1,.98,1.007,1.924,1.924,0,0,1,.051,1.582,2.574,2.574,0,0,1-1.615,1.382,4.491,4.491,0,0,1-.939-.1,1.985,1.985,0,0,1-1.174-1.026,2.128,2.128,0,0,1-.086-1.664,2.531,2.531,0,0,1,1.669-1.35" transform="translate(-514.426 -475.984)" fill="#fff"/>
      <path id="Path_106" data-name="Path 106" d="M90.591,350.964a4.476,4.476,0,0,1,1.852.321,2.991,2.991,0,0,1,1.5,1.889,2.938,2.938,0,0,1-.246,2.3,3.342,3.342,0,0,1-2.18,1.572,3.586,3.586,0,0,1-1.806-.265,3.008,3.008,0,0,1-1.507-1.746,2.923,2.923,0,0,1,.209-2.569,3.1,3.1,0,0,1,2.177-1.5" transform="translate(-64.144 -255.852)" fill="#0f1f40"/>
      <path id="Path_107" data-name="Path 107" d="M93.168,354.394a4.269,4.269,0,0,1,.931.069,2.176,2.176,0,0,1,1.429,1.068,2.265,2.265,0,0,1,.117,1.729,2.522,2.522,0,0,1-1.41,1.269,2.98,2.98,0,0,1-.938.01,1.991,1.991,0,0,1-1.383-1.023,2.276,2.276,0,0,1-.175-1.745,2.4,2.4,0,0,1,1.428-1.376" transform="translate(-66.796 -258.352)" fill="#fff"/>
      <path id="Path_108" data-name="Path 108" d="M61.686,225.914a3.857,3.857,0,0,1,1.736.208,3.4,3.4,0,0,1,1.667,1.821,3.117,3.117,0,0,1-.116,2.4A3.28,3.28,0,0,1,62.84,232a3.95,3.95,0,0,1-1.779-.179,3.1,3.1,0,0,1-1.692-1.766,3.177,3.177,0,0,1,.116-2.5,3.314,3.314,0,0,1,2.2-1.637" transform="translate(-43.124 -164.684)" fill="#0f1f40"/>
      <path id="Path_109" data-name="Path 109" d="M64.573,229.416l.838.115a2.217,2.217,0,0,1,1.36,1.2,2.022,2.022,0,0,1,.034,1.609c-.288.775-.892,1.024-1.605,1.343a2.947,2.947,0,0,1-.767-.084,2.3,2.3,0,0,1-1.465-1.17,2.133,2.133,0,0,1-.057-1.682,2.47,2.47,0,0,1,1.664-1.335" transform="translate(-45.747 -167.244)" fill="#fff"/>
      <path id="Path_110" data-name="Path 110" d="M217.958,393.315a6.087,6.087,0,0,1,1.669-.02,3.2,3.2,0,0,1,2.018,1.566,3.369,3.369,0,0,1,.29,2.612,3.678,3.678,0,0,1-2.247,2.095,3.323,3.323,0,0,1-2.048-.089,3.205,3.205,0,0,1-1.768-1.736,3.246,3.246,0,0,1-.053-2.59,3.545,3.545,0,0,1,2.139-1.837" transform="translate(-157.382 -286.674)" fill="#0f1f40"/>
      <path id="Path_111" data-name="Path 111" d="M221.223,396.462a3.534,3.534,0,0,1,1.026.215,2.327,2.327,0,0,1,1.183,1.191,2.588,2.588,0,0,1,.028,1.895,3.209,3.209,0,0,1-1.921,1.4,2.924,2.924,0,0,1-1.083-.26,2.583,2.583,0,0,1-1.3-1.5,2.192,2.192,0,0,1,.17-1.652,2.877,2.877,0,0,1,1.892-1.28" transform="translate(-159.934 -289.02)" fill="#fff"/>
      <path id="Path_112" data-name="Path 112" d="M8.24,269.138a1.309,1.309,0,0,1,.567.68,64.892,64.892,0,0,0-7.786,29.527,71.321,71.321,0,0,0,.578,10.19c.16,1.193.387,2.371.593,3.556a5.525,5.525,0,0,1,.173,1.078,2.143,2.143,0,0,1-.28.467,5.773,5.773,0,0,1-.587-.344L.239,306.214A65.937,65.937,0,0,1,5.3,274.94c.787-1.87,1.629-4.24,2.939-5.8" transform="translate(0 -196.191)" fill="#0f1f40"/>
      <path id="Path_113" data-name="Path 113" d="M286.853,18.956a4.924,4.924,0,0,1,2.367.326,3.833,3.833,0,0,1,1.747,5.405,4.22,4.22,0,0,1-2.53,1.948,4.3,4.3,0,0,1-2.535-.291,4.2,4.2,0,0,1-2.122-2.474,3.927,3.927,0,0,1,.356-3.019,4.137,4.137,0,0,1,2.717-1.895" transform="translate(-207.064 -13.809)" fill="#0f1f40"/>
      <path id="Path_114" data-name="Path 114" d="M289.854,22.4a3.384,3.384,0,0,1,1.642.22,3.288,3.288,0,0,1,1.615,1.8,2.862,2.862,0,0,1-.236,2.213,3.242,3.242,0,0,1-2.16,1.542,4.028,4.028,0,0,1-1.462-.2,3.082,3.082,0,0,1-1.632-1.5,3.033,3.033,0,0,1-.009-2.317,3.566,3.566,0,0,1,2.242-1.765" transform="translate(-209.808 -16.326)" fill="#fff"/>
      <path id="Path_115" data-name="Path 115" d="M691.533,666.719l.456.344.024.381A17.2,17.2,0,0,1,688.9,670.5a59.4,59.4,0,0,1-21.212,12.1A63.418,63.418,0,0,1,628,682.035a75.617,75.617,0,0,1-10.162-4.447l-.3-.326c-.009-.4-.024-.39.24-.695.918.062,2.311,1.084,3.183,1.528a57.609,57.609,0,0,0,6.355,2.674,63.218,63.218,0,0,0,17.253,3.677,59.927,59.927,0,0,0,40.1-11.681c2.491-1.864,4.539-4.023,6.864-6.046" transform="translate(-451.175 -486.023)" fill="#0f1f40"/>
      <path id="Path_116" data-name="Path 116" d="M580.783.026a11.189,11.189,0,0,1,7.5,2.305,11.051,11.051,0,0,1,4.272,7.452,10.868,10.868,0,0,1-2.353,8.332,11.495,11.495,0,0,1-15.565,2.01,11.567,11.567,0,0,1-4.456-8.056,10.864,10.864,0,0,1,2.395-7.907,11.476,11.476,0,0,1,8.2-4.137" transform="translate(-416.268 0)" fill="#0f1f40"/>
      <path id="Path_117" data-name="Path 117" d="M583.543,3.414a7.123,7.123,0,0,1,2.554.138,11.582,11.582,0,0,1,4.453,1.989,10.393,10.393,0,0,1,3.955,6.678,9.993,9.993,0,0,1-2,7.56,10.309,10.309,0,0,1-7.11,3.918,10.476,10.476,0,0,1-7.306-1.943,10.233,10.233,0,0,1-3.856-6.414,10.324,10.324,0,0,1,1.731-7.859,10.821,10.821,0,0,1,7.583-4.067" transform="translate(-419.159 -2.446)" fill="#fff"/>
      <path id="Path_118" data-name="Path 118" d="M469.7,720.441c2.329-.066,4.684.053,7.016.058,3.22.007,6.441,0,9.662,0,.961,0,3.043-.235,3.853.219l15.21,7.524c1.7.836,2.872,1.684,3.472,3.565.241.758.561,2.466.181,3.2l-.757.074c-7.071.1-14.151.007-21.224.043q-4.427.022-8.855.037c-1.6,0-3.234.072-4.826-.036a4.871,4.871,0,0,1-2.1-.555,5.134,5.134,0,0,1-2.374-2.9l-.041-.174a15.129,15.129,0,0,1,.133-5.586q.337-2.726.646-5.458" transform="translate(-342.267 -525.18)" fill="#0f1f40"/>
      <path id="Path_119" data-name="Path 119" d="M476.4,723.591a7.209,7.209,0,0,1,2.592.243,60.718,60.718,0,0,1,6.685,2.867c.233.484.082.651-.067,1.154a2.941,2.941,0,0,1-.964-.193c-2.275-.879-4.512-2.009-6.756-2.979-.5-.216-1.266-.307-1.643-.677Z" transform="translate(-347.695 -527.486)" fill="#fff"/>
      <path id="Path_120" data-name="Path 120" d="M319.572,720.6l3.3-.023c.075,1.609.21,3.214.378,4.815.226,2.155.828,4.838-.123,6.877a4.715,4.715,0,0,1-2.558,2.607l-.163.058a11.509,11.509,0,0,1-3.61.265c-2.071.025-4.143.037-6.214.047-8.122.037-16.246.014-24.368.008-.784,0-3.064.16-3.662-.25a3.982,3.982,0,0,1-.13-.864,5.132,5.132,0,0,1,1.516-4.1,10.92,10.92,0,0,1,3.4-2.1c1.331-.621,2.671-1.225,3.993-1.865,2.509-1.215,4.993-2.513,7.48-3.776a25.4,25.4,0,0,1,2.78-1.431,7.508,7.508,0,0,1,2.5-.208q2.014-.006,4.028-.009c3.817,0,7.634-.011,11.451-.054" transform="translate(-206.24 -525.291)" fill="#0f1f40"/>
      <path id="Path_121" data-name="Path 121" d="M397.851,723.775a25.094,25.094,0,0,1,3.306,0l-8.256,3.33a7.633,7.633,0,0,1-1.273.5c-.442.1-.463.074-.829-.156a.8.8,0,0,1-.086-.706,8.039,8.039,0,0,1,2.546-1.2c1.526-.6,3.029-1.266,4.591-1.772" transform="translate(-285.219 -527.581)" fill="#fff"/>
      <path id="Path_122" data-name="Path 122" d="M49.326,439.887a4.373,4.373,0,0,1,3.033.522,3.559,3.559,0,0,1,1.629,2.051l.041.205.873,5.773a38.548,38.548,0,0,1,10.56,3.5c.643-.711,1.294-1.417,1.921-2.142.962-1.111,1.706-2.319,3.259-2.613a5.074,5.074,0,0,1,4,1.109,41.708,41.708,0,0,1,4.508,3.786,9.479,9.479,0,0,1,1.614,1.671,4.23,4.23,0,0,1,.541,1.533,3.171,3.171,0,0,1-.054,1.461,7.668,7.668,0,0,1-1.213,1.975c-.726.979-1.467,1.948-2.2,2.923a32.073,32.073,0,0,1,5.331,10.6c2.007-.281,4.4-1,6.145.36a4.143,4.143,0,0,1,1.6,3.19c.2,1.936.333,3.886.455,5.828a15.113,15.113,0,0,1,.06,3.3,3.654,3.654,0,0,1-.883,1.841c-1.475,1.69-4.47,1.4-6.526,1.487a35.8,35.8,0,0,1-2.968,8.862c1.584,1.37,3.8,2.857,4.193,5.013a4.27,4.27,0,0,1-1.04,3.51c-.753,1.024-1.586,1.99-2.385,2.979-1.273,1.579-2.82,4.045-5.018,4.294-2.449.278-4.635-2.084-6.434-3.482a35.738,35.738,0,0,1-8.565,4.881c.336,2.107,1.384,5.585.028,7.394a3.747,3.747,0,0,1-1.417,1.145,14.122,14.122,0,0,1-3.805.855c-1.68.252-3.359.517-5.038.775a4.329,4.329,0,0,1-2.974-.733c-2.028-1.47-2.063-4.584-2.4-6.874a32.388,32.388,0,0,1-9.857-2.875c-1.448,1.473-2.873,3.778-5.027,4.157a4.164,4.164,0,0,1-3.162-.7c-1.038-.766-2-1.73-2.979-2.58a21.687,21.687,0,0,1-3.7-3.507,4.949,4.949,0,0,1-.845-2.185c-.225-2.278,2.073-4.437,3.411-6.118-2.063-2.7-4.484-5.857-5.219-9.225-2.179.192-5.34,1.055-7.244-.241A3.861,3.861,0,0,1,9.9,490.91c-.2-1.262-.3-2.558-.463-3.827-.265-2.126-.948-4.52.522-6.362,1.439-1.8,4.871-1.622,7.017-1.891.194-1.3.331-2.61.629-3.887a58.824,58.824,0,0,1,2.38-7.264,24.859,24.859,0,0,0-2.2-1.781,6.358,6.358,0,0,1-1.859-1.677,3.934,3.934,0,0,1-.374-2.7l.046-.147a11.005,11.005,0,0,1,1.553-2.885,49.235,49.235,0,0,1,3.438-4.536,3.752,3.752,0,0,1,2.692-1.418c2.119-.13,4.135,2.24,5.609,3.514a31.33,31.33,0,0,1,9.622-5.748l-.139-.77c-.363-2.1-1.206-5.206.153-7.024a3.643,3.643,0,0,1,1.517-1.2,15.915,15.915,0,0,1,3.6-.619q2.848-.373,5.686-.795" transform="translate(-6.592 -320.575)" fill="#0f1f40"/>
      <path id="Path_123" data-name="Path 123" d="M281.241,562.189a4.863,4.863,0,0,1,.813-.214,13.015,13.015,0,0,1,3.869-.485,3.1,3.1,0,0,1,1.028.548,21.463,21.463,0,0,1-5.43.456Z" transform="translate(-205.321 -409.294)" fill="#fff"/>
      <path id="Path_124" data-name="Path 124" d="M187.458,475.486c.855-1,1.726-1.99,2.6-2.974.773-.868,1.542-2.036,2.8-2.145,2.272-.2,4.21,1.87,5.8,3.278a16.2,16.2,0,0,1,3.106,3.221,3.594,3.594,0,0,1-1.644-1.069c-1.365-1.2-3.8-4.064-5.69-3.917-2.009.157-4.358,3.247-5.656,4.692a5.374,5.374,0,0,0-1.345-.947,16.489,16.489,0,0,1-2.94-1.13,32.818,32.818,0,0,0-4.72-1.346c-1.075-.223-2.818-.282-3.62-.948l.237-.437a25.05,25.05,0,0,1,8.653,2.465,12.9,12.9,0,0,1,2.418,1.256" transform="translate(-128.617 -342.887)" fill="#fff"/>
      <path id="Path_125" data-name="Path 125" d="M37.435,501.436a2.7,2.7,0,0,1-1.176-1.865c-.209-1.95,2.315-4.946,3.509-6.446.8-1.007,1.911-2.683,3.314-2.794a3.633,3.633,0,0,1,2.654,1.181,9.111,9.111,0,0,1-2.066.546,25.383,25.383,0,0,0-4.468,5.971c-.39.717-.736,1.45-1.072,2.194a3,3,0,0,1-.7,1.213" transform="translate(-26.419 -357.442)" fill="#fff"/>
      <path id="Path_126" data-name="Path 126" d="M119.189,451.806l-.037-.159c-.3-1.419-1.058-4.621-.227-5.853a2.82,2.82,0,0,1,1.853-1.247c1.64-.321,3.343-.457,5-.7a22.32,22.32,0,0,1,4.64-.58,2.9,2.9,0,0,1,2.5,2.293l-.218.079-1.189-.726a36.412,36.412,0,0,0-5.483.591,24.906,24.906,0,0,0-3.8.6,2.034,2.034,0,0,0-.8.482,7.076,7.076,0,0,0-1.773,3.437,8.373,8.373,0,0,1-.474,1.789" transform="translate(-86.406 -323.125)" fill="#fff"/>
      <path id="Path_127" data-name="Path 127" d="M23.672,544.795a2.208,2.208,0,0,1,.946.569A19.236,19.236,0,0,1,23.51,548c-1.134,2.994-2.245,6.615-2.129,9.829-1.957.429-5.44.629-6.618,2.358a4.554,4.554,0,0,0-.47,3.06c.15,2.068.622,4.137.69,6.2l-.543-.385a2.336,2.336,0,0,1-.711-.955,9.585,9.585,0,0,1-.407-2.322c-.178-1.443-.362-2.885-.538-4.327-.158-1.3-.331-2.458.572-3.536,1.3-1.549,5.257-1.446,7.218-1.622a28.243,28.243,0,0,1,3.1-11.506" transform="translate(-9.225 -397.145)" fill="#fff"/>
      <path id="Path_128" data-name="Path 128" d="M46.263,456.282a8.376,8.376,0,0,0,.474-1.789,7.077,7.077,0,0,1,1.773-3.437,2.035,2.035,0,0,1,.8-.482,24.905,24.905,0,0,1,3.8-.6,36.42,36.42,0,0,1,5.483-.591l1.189.726.218-.079c.218,1.5.442,3,.685,4.5a7.339,7.339,0,0,0,.561,2.377c.8.666,2.545.725,3.62.948a32.818,32.818,0,0,1,4.72,1.346,16.514,16.514,0,0,0,2.94,1.131,5.373,5.373,0,0,1,1.345.947c1.3-1.445,3.647-4.536,5.656-4.692,1.888-.147,4.325,2.718,5.69,3.917a3.594,3.594,0,0,0,1.644,1.069,2.219,2.219,0,0,1,.39,1.58,4.936,4.936,0,0,1-.987,1.73c-.916,1.281-1.854,2.547-2.834,3.779a26.24,26.24,0,0,1,3.655,5.556c.46.931.878,1.887,1.252,2.855.321.83.7,2.968,1.4,3.4l.28.3a21.458,21.458,0,0,0,5.43-.456,2.487,2.487,0,0,1,1.269,1.922,49.08,49.08,0,0,1,.467,5.282,22.057,22.057,0,0,1,.208,3.969,2.653,2.653,0,0,1-.392,1.169,3.074,3.074,0,0,1-2.2,1.35l-4.832.249a22.924,22.924,0,0,1-3.492,10.141c1.605,1.155,4.474,2.985,4.753,5.038.238,1.748-1.894,3.707-2.916,4.952-.808.983-1.584,1.994-2.408,2.965a3.842,3.842,0,0,1-2.606,1.6c-1.332.1-2.21-.886-3.165-1.661-.938-.761-1.875-1.541-2.854-2.25A39.781,39.781,0,0,1,73.7,517.7a42.379,42.379,0,0,1-6.131,2.924l.936,6.055a3.223,3.223,0,0,1-1.651,2.239,14.763,14.763,0,0,1-3.929.866c-1.725.279-4.525,1.085-6.187.454a3.289,3.289,0,0,1-1.766-1.584,8.923,8.923,0,0,1-.43-2.009c-.208-1.275-.408-2.541-.564-3.823a23.563,23.563,0,0,1-7.848-1.673c-1.058-.426-2.087-.988-3.161-1.361q-1.062,1.126-2.123,2.252c-.9.961-1.663,2.118-3.115,2.131A3.451,3.451,0,0,1,36,523.813a19.307,19.307,0,0,1-3.172-2.609c-1.087-.958-2.288-1.883-3.291-2.925a2.1,2.1,0,0,1-.521-.709,3.944,3.944,0,0,1-.484-2.419l.036-.15a5.627,5.627,0,0,1,1.385-2.106c.753-.9,1.482-1.811,2.2-2.739a6.97,6.97,0,0,0-1.046-1.486c-.629-.839-1.241-1.688-1.8-2.574a35.426,35.426,0,0,1-3.037-6.436c-1.984.238-5.2,1.132-7.027.221-.068-2.065-.54-4.135-.69-6.2a4.554,4.554,0,0,1,.469-3.06c1.178-1.728,4.661-1.928,6.618-2.358-.116-3.214,1-6.834,2.129-9.829a19.238,19.238,0,0,0,1.109-2.635,2.207,2.207,0,0,0-.946-.569c.157-.343.291-.47.209-.853l-3.64-2.787a3,3,0,0,0,.7-1.214c.336-.743.682-1.477,1.072-2.193a25.376,25.376,0,0,1,4.468-5.971,9.111,9.111,0,0,0,2.066-.546,14.835,14.835,0,0,0,3.188,2.643,17.176,17.176,0,0,1,2.505-2.12,21.8,21.8,0,0,1,7.872-4,9.354,9.354,0,0,0-.1-1.9" transform="translate(-13.48 -327.552)" fill="#ee2934"/>
      <path id="Path_129" data-name="Path 129" d="M59,673.759l1.169,1.661a38.041,38.041,0,0,1-2.914,4.019,17.691,17.691,0,0,1-1.393,1.734,3.943,3.943,0,0,1-.484-2.419l.036-.15A5.627,5.627,0,0,1,56.8,676.5c.753-.9,1.482-1.811,2.2-2.739" transform="translate(-40.327 -491.156)" fill="#fff"/>
      <path id="Path_130" data-name="Path 130" d="M93.383,481.867l.158.888c-.2.243-.077.164-.335.245-3.326,1.042-6.755,3.6-9.243,5.989a8.464,8.464,0,0,0-.957-1,17.182,17.182,0,0,1,2.505-2.12,21.8,21.8,0,0,1,7.872-4" transform="translate(-60.501 -351.28)" fill="#fff"/>
      <path id="Path_131" data-name="Path 131" d="M105.8,521.378a20,20,0,0,1,14.612,4.437,20.358,20.358,0,0,1,7.315,13.5,21.5,21.5,0,0,1-4.627,15.816,20.469,20.469,0,0,1-13.867,7.444,19.926,19.926,0,0,1-14.226-4.059,20.622,20.622,0,0,1-7.643-13.609,21.217,21.217,0,0,1,4.185-15.628,20.58,20.58,0,0,1,14.251-7.9" transform="translate(-63.552 -379.989)" fill="#0f1f40"/>
      <path id="Path_132" data-name="Path 132" d="M108.971,525.018a19.014,19.014,0,0,1,13.036,4.013,19.52,19.52,0,0,1,7.247,13.151,20.345,20.345,0,0,1-4.286,14.828,19.379,19.379,0,0,1-13.346,7.216A19.069,19.069,0,0,1,90.778,546.7a20.669,20.669,0,0,1,4.7-14.852,19.541,19.541,0,0,1,13.5-6.827" transform="translate(-66.101 -382.678)" fill="#fff"/>
      <path id="Path_133" data-name="Path 133" d="M200.839.411a12.081,12.081,0,0,1,1.975-.059,15.488,15.488,0,0,1,7.776,1.836,8.209,8.209,0,0,1,3.317,3.224,14.722,14.722,0,0,1,.784,2.52l1.562.61a9.749,9.749,0,0,1,5.109,5.383,11.515,11.515,0,0,1,.6,2.688c.262,2.559.121,5.24.159,7.815a35.239,35.239,0,0,1,.057,5,7.669,7.669,0,0,1-.748,2.307,8.773,8.773,0,0,1-5.5,4.268l-.025,4.135c25.555-.069,51.114.009,76.669.022l24.623.014q3.808,0,7.615,0c1.376,0,2.818-.08,4.188.038a6.749,6.749,0,0,1,3.944,1.722,7.9,7.9,0,0,1,2.563,5.376c.139,7.062,0,14.159,0,21.225q.019,24.232-.023,48.464c0,8.264.028,16.528.027,24.792q0,3.708-.009,7.417a40.96,40.96,0,0,1-.062,4.107,7.382,7.382,0,0,1-2.063,4.4,6.638,6.638,0,0,1-3.815,1.964,23.9,23.9,0,0,1-3.184.07l-5.818,0q-9.61-.008-19.22-.012-32.923.014-65.846.031l-2.89,32.355c-4.73.259-9.558.088-14.3.091H214.16a8.445,8.445,0,0,1-2.228-.116,2.033,2.033,0,0,1-.242-.338,7.443,7.443,0,0,1-.09-1.618c-.1-1.832-.209-3.664-.308-5.5-.448-8.259-1.033-16.529-1.355-24.792l-4.469,0-1.48,32.385-22.168-.055c-2.891-18.385-4.3-37.318-2.564-55.884l3.466-26.678c-3.266-5.8-3.844-12.257-4.019-18.8l-3.877,2.4c-.1,7.349-.043,14.7-.037,22.051q0,3.217,0,6.434c0,1.188.082,2.434-.037,3.615a.728.728,0,0,1-.18.442.625.625,0,0,1-.647-.105,20.613,20.613,0,0,1-.1-3.487q-.005-3.109-.006-6.218,0-11.113-.028-22.226a22.9,22.9,0,0,1-7.211,2.21c-7.049.751-13.539-3.865-18.741-8.083a73.22,73.22,0,0,1-7.069-6.51c-1.755-1.856-3.7-3.615-3.956-6.315-.269-2.79,1.255-5,2.94-7.046a12.087,12.087,0,0,1-1.742-1.884c-1.555-2.341-2.057-5.306-2.4-8.044l-2.087-.652c-.171,5.331-.159,10.671-.242,16-.022,1.444-.046,2.889-.082,4.333a12.736,12.736,0,0,1-.117,2.206,3.966,3.966,0,0,1-.918,1.768,3.412,3.412,0,0,1-2.532,1.245,3.874,3.874,0,0,1-3.905-3.033,19.966,19.966,0,0,1,.064-4.153c.095-2.774.185-5.544.234-8.318l-1.476-.173c-1.5-.277-3.21-1.929-4-3.181a4.269,4.269,0,0,1-.58-3.382,2.8,2.8,0,0,1,1.361-1.637L121.48,59l-.084-.313a4.289,4.289,0,0,1-.21-1.881,3.585,3.585,0,0,1,1.888-2.471,4.047,4.047,0,0,1,.884-2.224,4.369,4.369,0,0,1,3.288-1.374l-.026-3.665-.182-.034c-3.016-.61-5.907-3.137-7.522-5.673a12.812,12.812,0,0,1-1.835-9.577A14.349,14.349,0,0,1,121.7,24.51c.618-.619,1.684-1.743,2.61-1.74.66.7,1.412,5.129,1.672,6.332a7.58,7.58,0,0,0-1.155,4.136,6.478,6.478,0,0,0,2.3,4.567,6.317,6.317,0,0,0,4.979,1.256,6.7,6.7,0,0,0,4.424-2.968,5.778,5.778,0,0,0,.293-5.985,15.512,15.512,0,0,1-1.2-1.924,17.053,17.053,0,0,1-.48-2.15c-.279-1.254-.653-2.49-.9-3.751-.086-.44-.224-.732.038-1.117a6.865,6.865,0,0,1,2.9.846,12.984,12.984,0,0,1,6.824,7.258,13.383,13.383,0,0,1-6.093,16.417,24.659,24.659,0,0,1-3.262,1.334l-.079,2.6c2.4.449,4.818.834,6.862,2.27,3.325,2.335,5.43,6.888,6.129,10.82a7.149,7.149,0,0,1,3.557.094,7.661,7.661,0,0,1,2.322,1.615c2.824,2.471,5.034,4.6,9,4.519,6.068-.117,9.181-5.74,12.668-9.855a46.041,46.041,0,0,1,7.063-6.935,33.191,33.191,0,0,1,5.456-3.292,11.283,11.283,0,0,0,2.758-1.372l.137-.178c.605-.581,2.2-.826,3.02-1.035a28.651,28.651,0,0,1,5.5-1.272l.053-4.26a14.928,14.928,0,0,1-7.7-6.616c-3.047-5.477-2.462-12.228-.82-18.039a8.544,8.544,0,0,1-2.613-5.426,6.768,6.768,0,0,1,1.608-4.815c2.761-3.488,6.987-4.96,11.256-5.436" transform="translate(-85.569 -0.249)" fill="#0f1f40"/>
      <path id="Path_134" data-name="Path 134" d="M798.512,361.843l.531-.072c.418.232.611.836.833,1.262a30.14,30.14,0,0,1-4.418.926l-1.567-.014a3.527,3.527,0,0,1,.172-1.572,22.858,22.858,0,0,0,4.449-.53" transform="translate(-579.68 -263.732)" fill="#ee2934"/>
      <path id="Path_135" data-name="Path 135" d="M505.25,428.539c1.073.238,1.14,1.451,1.841,2.2,1.1,1.18,2.232,1.234,3.734,1.311.428.314.385.354.49.849l-.323.43a4.867,4.867,0,0,1-3.339-.423,5.2,5.2,0,0,1-2.677-2.942,1.483,1.483,0,0,1,.273-1.428" transform="translate(-368.602 -312.404)" fill="#fff"/>
      <path id="Path_136" data-name="Path 136" d="M375.3,429.723a2.481,2.481,0,0,1,.577.167c.213.129.333.235.347.485a3.146,3.146,0,0,1-1.1,2,6.377,6.377,0,0,1-4.966,1.916c-.419-.149-.59-.142-.84-.522a1.587,1.587,0,0,1,.225-.8c.175-.238,1.573-.167,1.933-.224,1.929-.3,2.761-1.592,3.829-3.022" transform="translate(-269.621 -313.267)" fill="#fff"/>
      <path id="Path_137" data-name="Path 137" d="M145.08,189.42l.193.061a5.788,5.788,0,0,0,.721,3.265,16.183,16.183,0,0,0,1.418,1.475c-.164.31-.242.531-.564.7l-1.2-.8a11.578,11.578,0,0,0-3.15-1.822l-.169-.057a2.08,2.08,0,0,1,.286-1.273,3.79,3.79,0,0,1,2.462-1.551" transform="translate(-103.732 -138.087)" fill="#fff"/>
      <path id="Path_138" data-name="Path 138" d="M673.272,438.621a3.969,3.969,0,0,1,1.355.688l-8.987,11.367-.253.042c-.371-.01-.547-.258-.783-.5-.041-.422.022-.473.251-.833a44.241,44.241,0,0,1,2.845-3.576c1.89-2.374,3.753-4.762,5.571-7.191" transform="translate(-485.204 -319.752)" fill="#fff"/>
      <path id="Path_139" data-name="Path 139" d="M136.1,203.3a9.13,9.13,0,0,1,4.532,2.582,3.344,3.344,0,0,1,.972,2.307,2.633,2.633,0,0,1-1.245,1.91,14.191,14.191,0,0,1-4.955-3.714,1.8,1.8,0,0,1-.405-1.417,2.377,2.377,0,0,1,1.1-1.668" transform="translate(-98.378 -148.204)" fill="#fff"/>
      <path id="Path_140" data-name="Path 140" d="M131.287,219.588a20.143,20.143,0,0,1,2.922,2.112,12.667,12.667,0,0,1,2.273,1.437,2.133,2.133,0,0,1,.244,1.213,2.491,2.491,0,0,1-1.071,1.891l-.279.017a5.247,5.247,0,0,1-3.771-1.714,4.227,4.227,0,0,1-1.513-2.884,2.834,2.834,0,0,1,1.2-2.071" transform="translate(-94.82 -160.079)" fill="#fff"/>
      <path id="Path_141" data-name="Path 141" d="M438.674,192.244a3.976,3.976,0,0,1,.992.852q1.191,1.139,2.379,2.281l-2.112,3.131-1.138-.011-2.155.029-1.577-3.035Z" transform="translate(-317.622 -140.145)" fill="#ee2934"/>
      <path id="Path_142" data-name="Path 142" d="M717.7,411.808c2.175-.186,5.066,1.158,7.1,1.9.786.286,1.956.561,2.286,1.412a1.621,1.621,0,0,1-.109,1.236,2.555,2.555,0,0,1-1.863.98,36.969,36.969,0,0,1-9.735-2.7,5.958,5.958,0,0,1,2.317-2.827" transform="translate(-522.292 -300.195)" fill="#fff"/>
      <path id="Path_143" data-name="Path 143" d="M731.023,394.341a5.054,5.054,0,0,1,1.508.021,25.667,25.667,0,0,1,3.841,1.458,18.3,18.3,0,0,1,3.187,1.316,2.713,2.713,0,0,1,.912.912,1.409,1.409,0,0,1-.019,1.072,2.7,2.7,0,0,1-1.546,1.487,4.414,4.414,0,0,1-1.209.072,17.693,17.693,0,0,1-2.827-1.051c-1.532-.571-3.215-1-4.683-1.7a1.539,1.539,0,0,1-.58-.5,2.493,2.493,0,0,1-.035-1.626,2.716,2.716,0,0,1,1.451-1.461" transform="translate(-532.559 -287.44)" fill="#fff"/>
      <path id="Path_144" data-name="Path 144" d="M790.475,256.977a16.493,16.493,0,0,1,7.755,1.152,15.7,15.7,0,0,1,4.269,2.724,3.109,3.109,0,0,1,.915,1.081,2.05,2.05,0,0,1-.264.474,2.128,2.128,0,0,1-1.365.544,13.789,13.789,0,0,0-3.247,1.909,38.056,38.056,0,0,0-7.378-2.895Z" transform="translate(-577.226 -187.303)" fill="#ee2934"/>
      <path id="Path_145" data-name="Path 145" d="M445.613,496.816l.814.193a1.6,1.6,0,0,1,.287.371,4.924,4.924,0,0,1,.063.965c.06.9.12,1.81.185,2.714.479,6.575.95,13.164,1.361,19.743h-4.416q.312-9.125.741-18.249c.054-1.158.09-2.317.138-3.475a7.165,7.165,0,0,1,.133-1.633c.129-.427.327-.443.694-.631" transform="translate(-324.074 -362.17)" fill="#fff"/>
      <path id="Path_146" data-name="Path 146" d="M460.065,168.888l6.366,2.179-6.4,11.075-.819-.759-7.235-6.739Z" transform="translate(-329.986 -123.118)" fill="#fff"/>
      <path id="Path_147" data-name="Path 147" d="M399.48,169.041c.72.076,6.338,4.855,7.277,5.62l-7.88,6.69-1.077.939-5.343-11.481Z" transform="translate(-286.532 -123.23)" fill="#fff"/>
      <path id="Path_148" data-name="Path 148" d="M437.919,131.926c.259.346.107,8.15.107,9.237l-8.142,5.8-4.207-3.252-2.751-2.325a20.332,20.332,0,0,0,.251-4.43,15.148,15.148,0,0,0,4.265.521c4.368-.116,7.607-2.532,10.477-5.549" transform="translate(-308.779 -96.173)" fill="#fff"/>
      <path id="Path_149" data-name="Path 149" d="M158.74,184.784a16.845,16.845,0,0,1,4.507.284c2.411.325,4.626.6,6.7,1.962,3.335,2.195,5.154,6.641,5.9,10.41l-3.436,2.106-2.747,2.051-.423-.378c-2.491-2.268-3.277-6.037-3.432-9.269a16.341,16.341,0,0,0-3.821-1.18c-1.435-.347-3.574-.951-4.329-2.308a3.43,3.43,0,0,1-.192-2.681,3.327,3.327,0,0,1,1.272-.995" transform="translate(-114.837 -134.654)" fill="#fff"/>
      <path id="Path_150" data-name="Path 150" d="M773.179,279.456a44.1,44.1,0,0,1,6.6,2.574l2.715,8.6a36.846,36.846,0,0,1-2.741,2.467,24.428,24.428,0,0,1-3.141,2.77c-.418.261-.57.124-1.011,0l-6.185-3.116-3.671-8.225c2.8-.754,5.149-3.333,7.436-5.072" transform="translate(-559.199 -203.72)" fill="#ee2934"/>
      <path id="Path_151" data-name="Path 151" d="M680.69,377.462a7.143,7.143,0,0,1-.357-4.32,15.62,15.62,0,0,1,6.748-9.808c1.7-1.116,4.4-2.411,6.487-1.94l.181.045c3.166.762,6.626,3.448,8.791,5.855a3.469,3.469,0,0,1,1.111,2.934,4.616,4.616,0,0,1-.887,1.114c-1.863-.529-3.628-1.469-5.449-2.127a4.24,4.24,0,0,0,.216-1.6c-.37-.24-.372-.2-.815-.135a2.249,2.249,0,0,0-.342.406c-.11.222.053.987-.072,1.146a8.578,8.578,0,0,1-1.267.208,3.382,3.382,0,0,0-2.656,3.434,1.944,1.944,0,0,0,.309.873c.1.182.066.1.1.324l-.167.023a3.375,3.375,0,0,0-2.527,1.36,8.328,8.328,0,0,0-1.612,2.924c1.465,1.843,7.423,2.807,9.745,3.292a4.484,4.484,0,0,1-2.988,2.759,4.339,4.339,0,0,1-1.559.356,9.854,9.854,0,0,1-2.318-.7,34.372,34.372,0,0,1-4.038-1.541c-2.339-1.15-5.087-2.749-6.635-4.889" transform="translate(-496.618 -263.377)" fill="#fff"/>
      <path id="Path_152" data-name="Path 152" d="M138.249,81.618a10.128,10.128,0,0,1,2.225.909,12.138,12.138,0,0,1,5.918,7.3,12.548,12.548,0,0,1-1.06,9.277c-2,3.546-4.954,5.34-8.789,6.406l-.046,3.18c-1.836-.093-3.566-.363-5.3.378l-.14-3.44-2.668-.99c-3.285-1.43-5.312-4.271-6.6-7.507a13.208,13.208,0,0,1-.377-5.279l.162-1.016a12.284,12.284,0,0,1,5.131-7.487l1.117,4.872a7.9,7.9,0,0,0-.848,1.811,7.313,7.313,0,0,0,.683,5.747,7.1,7.1,0,0,0,4.364,3.375,7.786,7.786,0,0,0,5.912-.861,7.558,7.558,0,0,0,3.417-4.972,7.07,7.07,0,0,0-1.393-5.629,6.991,6.991,0,0,1-.943-2.738q-.379-1.668-.765-3.335" transform="translate(-88.411 -59.513)" fill="#fff"/>
      <path id="Path_153" data-name="Path 153" d="M482.308,150.854l74.285-.031a42.785,42.785,0,0,1-.026,4.8l-69.74.023a12.157,12.157,0,0,1-4.55-.974Z" transform="translate(-352.31 -109.95)" fill="#fff"/>
      <path id="Path_154" data-name="Path 154" d="M505.631,172.138l66.327.051a57.448,57.448,0,0,1-.093,6.962l-1.7.072-48.151-.1c-.968-.668-1.869-1.405-2.872-2.029a27.581,27.581,0,0,0-10.007-3.88c-1.189-.189-2.426-.118-3.6-.328a15.731,15.731,0,0,1-2.228-.676Z" transform="translate(-367.645 -125.488)" fill="#e7e7e7"/>
      <path id="Path_155" data-name="Path 155" d="M388.563,60.513c4.848,2.409,10.77,1.518,15.809.185a16.252,16.252,0,0,1,3.066,1.188,4.723,4.723,0,0,1,2.356,2.664l.047.2c.354,1.428-.153,5.19.554,6.022a5.115,5.115,0,0,0,2.327-.4,4.243,4.243,0,0,1,1.163-1.589A2.627,2.627,0,0,1,416,68.562a3.337,3.337,0,0,1,2.106,1.711A5.7,5.7,0,0,1,418,74.5c-.9,2.318-2.8,3.5-5,4.438l.657-2.033a2.151,2.151,0,0,0,.155-1.458c-.349-.1-.379-.148-.7,0a13.417,13.417,0,0,1-6.408,7.427,12.223,12.223,0,0,1-9.66.9,13.562,13.562,0,0,1-7.9-6.725c-2.56-4.861-2.2-11.441-.577-16.537" transform="translate(-282.791 -44.124)" fill="#fff"/>
      <path id="Path_156" data-name="Path 156" d="M443.24,81.1a1.6,1.6,0,0,1,.974.554,1.541,1.541,0,0,1-.262,1.034,1.82,1.82,0,0,1-1.059-.427,1.513,1.513,0,0,1,.347-1.161" transform="translate(-323.324 -59.135)" fill="#0f1f40"/>
      <path id="Path_157" data-name="Path 157" d="M485.206,97.738c.525.054.65,0,1.033.381a1.982,1.982,0,0,1-.488,1.18,1.5,1.5,0,0,1-.866-.459,1.371,1.371,0,0,1,.321-1.1" transform="translate(-353.977 -71.266)" fill="#0f1f40"/>
      <path id="Path_158" data-name="Path 158" d="M403.187,80.956a1.406,1.406,0,0,1,.773.246c.2.156.169.314.214.551-.234.423-.4.472-.8.709l-.427-.146c-.375-.167-.362-.261-.5-.631.162-.52.275-.484.741-.729" transform="translate(-293.8 -59.03)" fill="#0f1f40"/>
      <path id="Path_159" data-name="Path 159" d="M441.84,92.252a1.7,1.7,0,0,1,.748.085,1.385,1.385,0,0,1,.547,1.115,1.8,1.8,0,0,1-.6,1.491,2.042,2.042,0,0,1-.463.029c-.4-.032-.568-.29-.793-.582a2.721,2.721,0,0,1,.559-2.136" transform="translate(-322.132 -67.264)" fill="#0f1f40"/>
      <path id="Path_160" data-name="Path 160" d="M402.006,92.187l.938.067a1.26,1.26,0,0,1,.607.937,1.632,1.632,0,0,1-.528,1.5,1.325,1.325,0,0,1-.892,0,1.243,1.243,0,0,1-.474-.823,2.043,2.043,0,0,1,.349-1.672" transform="translate(-293.192 -67.219)" fill="#0f1f40"/>
      <path id="Path_161" data-name="Path 161" d="M417.033,91.152c.426.034.612-.012.945.269a10.3,10.3,0,0,1,.256,4.219,4.51,4.51,0,0,1-.561.979,3.129,3.129,0,0,0-.689,1.37,1.2,1.2,0,0,0,.631.729,2.5,2.5,0,0,0,1.892-.072,2.33,2.33,0,0,1,.9-.183,1.1,1.1,0,0,1,.37.816,5.2,5.2,0,0,1-1.156.508,3.738,3.738,0,0,1-2.818-.342,1.962,1.962,0,0,1-.852-1.388c-.108-.93.814-1.871,1.333-2.551Z" transform="translate(-303.658 -66.464)" fill="#0f1f40"/>
      <path id="Path_162" data-name="Path 162" d="M758.35,150.845q13.342,0,26.683,0,3.844,0,7.688,0a29.659,29.659,0,0,1,4.324.108,6.176,6.176,0,0,1,3.221,1.688c2.652,2.625,1.981,6.567,1.962,9.975l-.007,1.084q-14.5-.01-29-.024l-6.845-.006a12.579,12.579,0,0,0-2.848.064,2.922,2.922,0,0,0-.266.814l-5.619-.056a2.037,2.037,0,0,0,.62-.94,19.412,19.412,0,0,0,.1-4.1q0-4.306-.008-8.612" transform="translate(-553.295 -109.949)" fill="#b2a9a7"/>
      <path id="Path_163" data-name="Path 163" d="M866.486,163.995a4.6,4.6,0,0,1,1.982.3,3.719,3.719,0,0,1,1.844,2.1,3.458,3.458,0,0,1-.17,2.583,3.641,3.641,0,0,1-2.456,1.871,3.846,3.846,0,0,1-2.211-.4,3.709,3.709,0,0,1-1.744-2.318,3.651,3.651,0,0,1,.436-2.692,3.5,3.5,0,0,1,2.319-1.441" transform="translate(-630.556 -119.552)" fill="#0f1f40"/>
      <path id="Path_164" data-name="Path 164" d="M869.186,167.4a4.684,4.684,0,0,1,1.308.078,2.725,2.725,0,0,1,1.486,1.367,2.4,2.4,0,0,1,.1,1.91,2.656,2.656,0,0,1-1.547,1.515,4.121,4.121,0,0,1-1.494-.049,2.377,2.377,0,0,1-1.273-1.146,2.62,2.62,0,0,1-.2-2.157,2.839,2.839,0,0,1,1.615-1.518" transform="translate(-633.311 -122.03)" fill="#fff"/>
      <path id="Path_165" data-name="Path 165" d="M829.041,163.85a4.8,4.8,0,0,1,1.875.1,3.381,3.381,0,0,1,2.052,1.718,3.675,3.675,0,0,1,.2,2.889,3.722,3.722,0,0,1-2.267,2.1,4.5,4.5,0,0,1-2.211-.137,3.233,3.233,0,0,1-1.878-1.73,3.953,3.953,0,0,1-.011-2.918,3.605,3.605,0,0,1,2.245-2.02" transform="translate(-603.499 -119.413)" fill="#0f1f40"/>
      <path id="Path_166" data-name="Path 166" d="M831.917,167.386a3.96,3.96,0,0,1,1.493.155,2.55,2.55,0,0,1,1.349,1.338,2.854,2.854,0,0,1,.02,1.957,2.7,2.7,0,0,1-1.613,1.442,4.776,4.776,0,0,1-1.344-.058,2.443,2.443,0,0,1-1.505-1.3,2.584,2.584,0,0,1-.041-1.909,2.781,2.781,0,0,1,1.641-1.622" transform="translate(-606.117 -122.019)" fill="#fff"/>
      <path id="Path_167" data-name="Path 167" d="M422.231,219.086c.339-.018.331-.075.623.137l5.044,60.222-7.634,7.638-1.4-1.434-6.973-7.2,8.009-59.305Z" transform="translate(-300.722 -159.683)" fill="#ee2934"/>
      <path id="Path_168" data-name="Path 168" d="M616.519,256.246l36.318.015a31.383,31.383,0,0,0,.095,4.866,17.747,17.747,0,0,0-3.155,6.328c-1.275,4.968-.275,9.308,2.31,13.646l-1.028,4.222-2.49-1.178c-2.045-.887-3.8-.355-5.762.411-2.167-1.19-4.191-2.584-6.253-3.944a65.093,65.093,0,0,1-6.89-4.855c-5.768-4.976-10.086-12.616-13.145-19.512" transform="translate(-450.197 -186.797)" fill="#ee2934"/>
      <path id="Path_169" data-name="Path 169" d="M245.974,178.909c.292,0,.255-.06.428.2a15.214,15.214,0,0,1,.941,2.234c.857,1.981,1.774,3.946,2.7,5.9a11.248,11.248,0,0,0,1.995,3.439c.785-.115,1.466-.89,2.065-1.388,1.1-.914,2.182-1.871,3.354-2.692l.169-.117,1.708,2.945-7.691,55.252a14.387,14.387,0,0,1-3.966-.323c-3.314-.78-7.276-2.721-9.106-5.73-2.1-3.453-2.824-7.819-3.212-11.774a86.66,86.66,0,0,1,.987-22.927c.527-3.126,1.339-6.165,2.069-9.244-.219-.312-.232-.28-.611-.361-.907.622-2.038,7.312-2.341,8.79l-1.443,16.571c-4.09,3.221-9.952,5.99-15.29,5.34a18.949,18.949,0,0,1-4.846-1.244,34.114,34.114,0,0,1-7.218-4.231,80.436,80.436,0,0,1-10-8.731c-1.2-1.226-2.736-2.562-3.381-4.177a6.108,6.108,0,0,1,.292-4.886c1.509-3.274,5.442-6.416,8.806-7.638,3.08-1.118,4.452.206,6.643,2.093a21.5,21.5,0,0,0,4.481,3.167,9.818,9.818,0,0,0,4.367.714c6.114-.288,9.182-5.079,12.668-9.4a54.752,54.752,0,0,1,5.064-5.511,30.576,30.576,0,0,1,10.371-6.269" transform="translate(-140.902 -130.41)" fill="#fff"/>
      <path id="Path_170" data-name="Path 170" d="M470.131,178.714a34.511,34.511,0,0,1,4.444.4c9.984,1.941,17.132,9.05,21.97,17.621,1.218,2.158,2.223,4.445,3.342,6.656a65.474,65.474,0,0,0,8.853,13.6c4.219,4.855,10.2,8.219,15.654,11.525a16.972,16.972,0,0,0-3.508,2.37,16.465,16.465,0,0,0-5.451,11.9,45.06,45.06,0,0,1-8.67-1.755c-7.848-2.483-14.6-8.121-19.38-14.713a71.141,71.141,0,0,1-5.419-9.136,58.552,58.552,0,0,1-3.667-8.916c-.287-.886-.574-1.785-.788-2.692a4.992,4.992,0,0,0-.517-1.822c-.155-.176-.382-.094-.595-.089l-.257.274a13.934,13.934,0,0,0,.9,3.664,68.84,68.84,0,0,0,4.438,10.95c.606,1.169,1.261,2.3,1.917,3.447a4.775,4.775,0,0,1,.795,1.655,17.716,17.716,0,0,1-.08,2.892c-.268,3.773-1.291,7.855-3.762,10.8-5.015,5.983-12.644,7.171-19.993,7.809l-4.652-55.845a22.417,22.417,0,0,0,2.1-3.132l5.11,4.513a27.515,27.515,0,0,0,3.069-4.813c1.386-2.388,2.782-4.766,4.146-7.167" transform="translate(-332.879 -130.27)" fill="#fff"/>
      <path id="Path_171" data-name="Path 171" d="M602.148,201.3l5.62.056c1.532.157,3.1.09,4.636.093q3.66.007,7.321.01c8.989.009,18.007-.116,26.994.056.229,21.49-.014,42.99.029,64.482q.023,11.369.014,22.739,0,3.387-.006,6.773a43.948,43.948,0,0,1-.1,4.518,5.906,5.906,0,0,1-1.7,3.4,6.212,6.212,0,0,1-3.521,1.75,30.05,30.05,0,0,1-3.278.051q-2.922,0-5.845,0-9.47,0-18.941,0c-22.014,0-44.045-.167-66.058.04a255.767,255.767,0,0,0-1.43-39.442c-.411-3.278-1.031-6.549-1.571-9.809a20.591,20.591,0,0,0,1.941-2.109c2.665-3.624,3.232-8.113,3.479-12.463l5.017,6.523a62.087,62.087,0,0,0,5.836,5.17,38.455,38.455,0,0,0,14.9,6.563c1.608.346,3.243.488,4.859.774l.577,1.01a7.467,7.467,0,0,0,1.182,1.315c-1.878,2.484-3.834,4.909-5.776,7.343-1.157,1.45-2.86,3.188-3.62,4.872l-.08.187a3.38,3.38,0,0,0-.285,1.456,4.208,4.208,0,0,0,1.342,3.232,4.586,4.586,0,0,0,3.427,1.337,5.369,5.369,0,0,0,2.882-.948,11.1,11.1,0,0,0,1.769-1.9c.939-1.15,1.848-2.323,2.761-3.493,1.883-2.413,3.8-4.877,5.857-7.14,2.38.95,4.159,1.832,6.7.751a5.353,5.353,0,0,0,3.181-3.467l-.011,0,.937-.127a3.176,3.176,0,0,0,2.08-1.6,2.834,2.834,0,0,0,.132-2.255c1.15-.315,2.064-.474,2.79-1.53a2.7,2.7,0,0,0,.456-2.184,2.276,2.276,0,0,0-1.214-1.617,1.425,1.425,0,0,1-.576-.456l-.085-.155.178-.15a3.253,3.253,0,0,0,.746-2.637c-.295-1.811-1.941-3.12-3.245-4.251-1-.87-2-1.732-3.061-2.533a19.559,19.559,0,0,1,.875-3.535l1.819,1.839a15.962,15.962,0,0,0,11.555,3.93,16.227,16.227,0,0,0,9.941-4.218c1.074-1,1.986-2.187,2.966-3.281l-.4-.406c-.345-.07-.454-.151-.748.091a15.033,15.033,0,0,0-1.3,1.67,16.711,16.711,0,0,1-5.4,3.973l-.091-.329a2.383,2.383,0,0,0-.619-1.4,2.154,2.154,0,0,0-.794-.132c-1.015.072-2.04.461-3.06.595-.824.108-1.652,0-2.471.154-.631.545-.662,1.555-.789,2.338a18.417,18.417,0,0,1-5.994-2.142,15.659,15.659,0,0,1-7.042-9.884,15.346,15.346,0,0,1,2-11.277,15.887,15.887,0,0,1,10.255-7l.837,5.341c-1.771,1.354-3.52,2.819-5.339,4.1-.684.48-1.572.281-2.1.968a1.751,1.751,0,0,0-.153.973,18.389,18.389,0,0,0,1.642,3.292c.762,1.553,1.465,3.138,2.18,4.714-.637.717-1.181,1.521-1.77,2.278a6.092,6.092,0,0,0-.973,1.378c-.081.214,0,.248.1.431l.325.072c1.082-.422,2.239-2.45,2.927-3.4,2.353,1.138,4.616,2.66,7.091,3.507,1.193-.577,6.417-4.854,6.965-5.944a1.9,1.9,0,0,0,.141-1.14,17.32,17.32,0,0,0-.792-2.54c-.589-1.8-1.2-3.594-1.753-5.407a12.98,12.98,0,0,1,3.506-1.84,13.591,13.591,0,0,1,1.389-1.851,15.065,15.065,0,0,1,3.77,9.894c-.01.94-.26,1.85-.248,2.783,0,.2.184.284.322.415l.339-.045c.524-.59.51-2.665.52-3.474a15.47,15.47,0,0,0-4.493-10.667,16.711,16.711,0,0,0-11.809-4.963c-4.88-.008-9.019,2.29-12.4,5.674a31.389,31.389,0,0,1-.095-4.866l-36.318-.015c-.96-1.708-1.8-3.47-2.83-5.143a56.183,56.183,0,0,0-7.649-9.574c11.255-.173,22.531-.023,33.788-.026q4.692,0,9.384-.009a45.142,45.142,0,0,0,5.569-.13" transform="translate(-397.801 -146.717)" fill="#fff"/>
      <path id="Path_172" data-name="Path 172" d="M653.875,345.147a38.3,38.3,0,0,1,.181,5.415q.028,4.336.052,8.672.083,12.053.081,24.1,0,2.908,0,5.817a16.372,16.372,0,0,1-.209,4.02l-.052.212a6.056,6.056,0,0,1-2.71,3.638,6.213,6.213,0,0,1-2.963.884c-4.095.227-8.279.082-12.384.078q-10.65-.011-21.3,0-9.5.007-18.99,0-2.923,0-5.845-.009a13.971,13.971,0,0,1-3.705-.252,5.812,5.812,0,0,1-3.414-2.677,6.317,6.317,0,0,1-.751-2.555c-.109-1.482.01-3.043.029-4.531.034-2.653.038-5.306.041-7.959.012-9.052-.027-18.1.153-27.154a62.056,62.056,0,0,0,5.836,5.17,38.453,38.453,0,0,0,14.9,6.563c1.608.346,3.243.488,4.86.774l.577,1.01a7.47,7.47,0,0,0,1.182,1.315c-1.878,2.484-3.834,4.909-5.776,7.343-1.157,1.45-2.86,3.188-3.621,4.872l-.08.187a3.381,3.381,0,0,0-.286,1.456,4.21,4.21,0,0,0,1.342,3.232,4.588,4.588,0,0,0,3.427,1.337,5.371,5.371,0,0,0,2.882-.948,11.1,11.1,0,0,0,1.769-1.9c.94-1.149,1.847-2.323,2.761-3.493,1.883-2.413,3.8-4.877,5.857-7.14,2.379.95,4.159,1.833,6.7.751a5.353,5.353,0,0,0,3.181-3.467l-.011,0,.936-.127a3.174,3.174,0,0,0,2.08-1.6,2.834,2.834,0,0,0,.132-2.255c1.15-.315,2.064-.474,2.79-1.53a2.7,2.7,0,0,0,.456-2.184,2.274,2.274,0,0,0-1.214-1.616,1.425,1.425,0,0,1-.576-.456l-.085-.155.178-.15a3.254,3.254,0,0,0,.746-2.637c-.295-1.811-1.941-3.119-3.245-4.251-1-.869-2-1.732-3.06-2.533a19.567,19.567,0,0,1,.875-3.535l1.819,1.839a15.963,15.963,0,0,0,11.555,3.93,16.225,16.225,0,0,0,9.941-4.217c1.074-1,1.986-2.187,2.966-3.282" transform="translate(-425.138 -251.595)" fill="#fb4b57"/>
    </g>
  </g>
</svg>
